<svg width="72" height="72" viewBox="0 0 72 72" fill="none" xmlns="http://www.w3.org/2000/svg">
<g clip-path="url(#clip0_358_1682)">
<path d="M71.4003 35.9991C71.4003 55.5507 55.5509 71.3996 36.0002 71.3996C16.4494 71.3996 0.600342 55.5507 0.600342 35.9991C0.600342 16.449 16.4494 0.599609 36.0002 0.599609C55.5509 0.599609 71.4003 16.449 71.4003 35.9991Z" fill="#231F20"/>
<path d="M70.1578 35.9989C70.1578 54.8648 54.865 70.1575 35.9999 70.1575C17.1348 70.1575 1.84155 54.8648 1.84155 35.9989C1.84155 17.1344 17.1348 1.84131 35.9999 1.84131C54.865 1.84131 70.1578 17.1344 70.1578 35.9989Z" fill="#BDBCBC"/>
<path d="M8.52818 18.7954C8.52818 18.8237 4.73839 19.3999 4.74207 19.418C4.76057 19.5122 4.54575 38.9138 8.00669 37.9373C10.2855 36.8651 9.0593 24.2233 9.0593 25.9235C9.0593 28.2937 9.28947 32.181 10.1987 38.2861C11.2236 45.1633 10.7916 46.0202 11.2695 47.501C10.1579 46.4215 8.42842 45.9357 8.42842 45.9357L10.8807 54.2246L12.6867 54.2062C12.6867 54.2062 12.7128 53.6493 12.7364 53.623C12.7851 53.6225 14.5202 53.7515 15.7125 55.9333C22.6111 68.559 40.7734 63.704 36.019 63.9777L43.5031 63.0767C21.5844 66.8267 17.4726 56.7206 16.3704 54.703C15.6799 53.6912 13.6949 52.6311 12.447 53.2346C12.447 53.2346 15.4931 53.3563 15.3576 52.5485C16.3095 53.4731 12.9907 51.0523 12.9907 51.0523L13.1577 51.577C13.6724 51.6292 13.4406 51.0736 13.983 50.9827L13.3099 50.6747C13.2237 50.5689 13.6839 50.0196 12.0406 38.9917C11.1378 32.9324 11.3197 28.2152 11.3197 25.8678C11.3197 23.5936 11.1713 23.4327 11.1754 23.4159L9.83981 22.5437L9.58363 22.4918C9.21534 22.4171 8.85073 22.2993 8.69254 22.2116C8.77461 22.0896 8.82187 21.9268 8.82187 21.6581C8.82187 21.3984 8.79406 21.0597 8.75786 20.6223C8.7101 20.0372 8.73376 17.9412 8.65299 18.6413C4.39704 55.5774 10.2884 14.5072 9.56463 15.2964L9.97853 14.8274C11.9832 12.5133 18.9865 7.10905 37.0565 6.68648C56.1655 6.23874 56.2522 13.2185 56.3176 13.3205L61.2677 15.7724C61.2024 15.6675 54.7729 4.99635 35.3668 5.45063C17.0798 5.87877 11.6515 12.1431 9.60786 14.5016L9.2037 14.9605C8.36356 15.8768 7.39954 15.8851 7.39954 17.2351C7.39954 17.956 6.59135 18.9163 6.64052 19.5125C8.99947 23.6569 8.18527 21.6083 8.52829 18.7953L8.52818 18.7954ZM60.7842 17.0186C60.3673 17.1977 60.4303 17.8741 60.517 18.8093C60.5811 19.5066 60.6548 20.2971 60.517 20.8487L60.9944 20.9689C61.1524 20.3357 61.074 19.5005 61.0063 18.7634C60.9636 18.2948 60.897 17.5859 60.9968 17.4603C61.0087 17.4764 61.1465 22.7387 62.2308 23.9931C63.9552 25.9894 63.0954 24.8407 63.0954 28.3197C63.0954 30.0344 64.378 32.033 64.327 32.733C63.688 31.924 63.5063 29.8427 63.3436 27.976C63.1536 25.8025 62.9909 23.9259 62.2177 23.3024C63.1704 22.4669 59.8598 18.0895 60.0859 21.0537C60.2415 22.0906 59.7343 18.7258 58.998 17.5803C56.7427 14.0704 52.0704 9.96923 35.8344 9.40558C20.9511 8.88884 13.5748 14.9977 11.6787 16.8613C11.681 16.8574 11.925 16.4364 11.925 16.4364L9.50652 15.1897L8.82226 22.4304L9.85732 20.7969C9.85732 20.7969 11.5283 17.7669 11.559 17.6959C11.8198 17.3883 18.8723 9.31187 35.8172 9.90011C53.8797 10.5269 57.1773 15.6579 58.5859 17.849C59.264 18.9054 59.4422 20.086 59.6001 21.1276C59.8068 22.4993 60.0039 23.7947 61.5443 23.5877C61.6857 23.5692 61.802 23.6007 61.9101 23.6884C62.5206 24.1802 62.6892 26.1318 62.8543 28.0186C63.0705 30.5154 63.2771 32.8731 64.4244 33.4511L64.7439 33.6122L64.7783 33.2535C64.8211 32.7952 65.8104 22.003 62.7545 18.4647C61.5515 17.0714 61.1085 16.8789 60.7842 17.0186H60.7842ZM67.3175 25.9644C67.0384 24.6621 66.593 23.2421 65.9327 21.7974C66.2795 22.5973 66.8341 24.0233 67.3175 25.9644ZM65.9327 21.7974C65.8484 21.6017 65.7723 21.4328 65.7165 21.3155C65.7961 21.4769 65.8602 21.6365 65.9327 21.7974ZM64.3935 18.2243C68.4315 22.118 67.707 32.1652 67.707 32.1652L65.7427 29.8831V39.6181L64.3828 42.3557C61.9647 55.2852 56.2236 66.6936 33.7101 66.0849C11.1971 65.4766 7.72236 53.4602 5.6068 42.0518C3.49136 30.6439 6.51333 18.171 6.51333 18.171C-0.135252 37.9447 7.72236 52.8515 7.72236 52.8515C7.72236 52.8515 11.4991 66.8452 34.7683 66.6936C58.036 66.5418 61.6631 53.6123 61.6631 53.6123L62.0859 56.8756C62.0859 56.8756 67.4909 51.9315 69.1524 41.5879C69.9944 36.3511 66.7403 20.4869 64.3935 18.2243ZM65.7165 21.3155C65.6381 21.1512 65.5906 21.0607 65.5906 21.0607C65.6346 21.1461 65.675 21.231 65.7165 21.3155Z" fill="#231F20"/>
<path d="M67.2251 30.686C67.2251 30.686 67.2521 30.7256 67.2251 30.686V30.686ZM9.40536 14.4645C9.40536 14.4645 12.4821 11.6271 14.6789 9.53675C14.6789 9.53675 11.7492 11.179 9.40536 14.4645ZM8.5866 52.1197C10.3286 55.6338 12.0428 57.9205 12.0428 57.9205C12.0428 57.9205 10.4093 55.4566 8.5866 52.1197ZM65.6526 18.347L65.0802 16.6789L70.193 18.4964L65.2464 15.9612L70.2702 12.98L64.7488 15.2435L65.6324 9.72273L63.8403 15.0556L62.541 14.6886C59.8165 10.6381 56.073 8.61074 51.3628 6.35138C42.6077 2.15057 30.9381 3.26446 30.9381 3.26446C30.9381 3.26446 44.7148 3.43988 55.2528 9.68615C57.4293 10.9763 59.2441 12.7651 60.75 14.787L58.4756 14.9123L61.0825 15.2448C61.3284 15.5913 61.5659 15.9435 61.794 16.3007L58.7678 18.0488L62.0327 16.6784C62.3688 17.223 62.6882 17.7774 62.9887 18.3382L61.6977 22.3795L63.2239 18.7826C65.4852 23.1565 66.6764 27.8028 67.2251 30.686C66.5921 24.6509 65.4875 20.3489 63.927 17.1219L64.041 16.8542C64.041 16.8542 69.7536 24.3205 68.7286 36.5663C67.7037 48.8119 64.7738 53.1426 61.8438 56.1293L61.6977 54.6355C61.6977 54.6355 57.4507 67.3298 36.3577 67.0305C15.2648 66.7314 13.6536 59.863 13.6536 59.863L12.4817 59.2646C12.4817 59.2646 7.50192 55.3829 4.42567 45.0783C1.3493 34.7741 4.27899 26.4115 4.27899 26.4115C4.27899 26.4115 2.66782 33.2808 3.83968 40.2994C4.44692 43.9365 6.62602 48.5326 8.5866 52.1197C7.14752 49.2183 5.68837 45.48 5.15821 41.494C3.98576 32.6832 4.27899 26.7097 5.7436 22.2301C7.20821 17.7505 8.08743 15.8084 8.08743 15.8084C8.08743 15.8084 1.93576 22.977 1.78908 38.209C1.64253 53.4413 14.5322 63.8945 20.2446 66.1347C25.9573 68.3746 43.974 71.3608 54.8131 63.7455C65.6526 56.1293 64.9198 54.1883 68.4353 47.1687C71.9519 40.15 70.4864 25.9632 65.6526 18.347ZM63.0873 15.5538C63.0754 15.5343 63.0647 15.5149 63.0529 15.4962L63.1621 15.5102L63.0873 15.5538ZM63.5909 16.4529C63.5291 16.336 63.4673 16.2168 63.4044 16.1026L63.7488 15.9578L63.5909 16.4529ZM12.0428 15.8084C12.9211 14.3151 17.4619 11.6271 17.4619 11.6271C17.4619 11.6271 14.9715 13.1209 12.189 16.4061C9.40537 19.6911 13.2143 16.1073 18.3411 12.6724C23.4675 9.23794 30.6448 9.53675 30.6448 9.53675C30.6448 9.53675 28.3016 7.7446 19.3663 10.5824L28.0084 6.84876C28.0084 6.84876 14.8259 9.68616 11.0171 15.062C7.20821 20.438 11.1632 17.3019 12.0428 15.8084ZM56.1348 15.3362C57.7512 17.0147 58.9151 18.4964 58.9151 18.4964C58.9151 18.4964 58.4388 16.9868 56.1348 15.3362ZM6.03683 37.3132C7.648 53.1426 14.3861 59.863 14.3861 59.863C14.3861 59.863 19.5125 64.9402 35.4785 65.6866C51.444 66.433 56.5718 60.1614 57.0113 59.1161C57.4507 58.0709 54.9597 59.7131 54.2277 59.4143C53.4951 59.1161 56.5718 53.5903 56.5718 53.5903C54.9602 59.5637 57.4507 52.6944 59.0612 53.4413C60.6728 54.1874 55.8388 56.1293 57.4507 57.6228C59.0612 59.1161 62.4293 48.5131 64.6277 43.7343C66.8248 38.9559 66.0921 34.0277 65.946 30.8915C65.7999 27.7554 65.0671 26.4115 65.0671 26.4115L64.6277 33.8787C64.6277 33.8787 64.921 34.9235 62.5766 29.6965L60.6728 24.6193C59.3545 47.9161 54.0805 56.7273 54.0805 56.7273C54.0805 56.7273 52.1766 62.5505 36.7965 62.7003C21.4169 62.8487 19.2193 58.8168 19.2193 58.8168C14.2395 52.2463 11.3098 38.209 12.0428 28.9505C12.7748 19.6916 12.0428 17.1525 18.6338 14.3151C25.2252 11.4782 35.1853 11.179 35.1853 11.179C47.149 10.8427 53.1634 13.2068 56.1348 15.3362C55.7641 14.9517 55.3698 14.5555 54.9597 14.1662C52.7626 12.0758 32.4022 7.7446 21.7097 11.9259C11.0171 16.1073 10.2846 20.1392 11.0171 32.3849C11.7497 44.6306 15.558 54.7849 18.1945 58.6679C20.8309 62.5505 30.2055 63.7455 30.2055 63.7455C17.4619 63.4464 15.9973 56.7273 15.2648 55.5313C14.5322 54.3368 12.3351 51.947 11.8958 53.8891C11.4564 55.8301 7.51819 43.9593 8.25073 43.3617C8.9828 42.7642 13.5069 49.4094 13.5069 49.4094C13.5069 49.4094 11.8957 46.1234 10.2846 36.865C8.6733 27.6065 11.1632 22.977 9.55204 22.6782C7.94076 22.3795 11.5557 36.3403 6.94099 36.961C5.62626 37.1382 6.71736 24.6137 7.30382 22.0751C7.88933 19.5361 8.52722 18.7952 8.52722 18.7952C8.52722 18.7952 4.42566 21.4837 6.03683 37.3132Z" fill="url(#paint0_linear_358_1682)"/>
<path d="M38.176 61.7176C38.201 61.7164 41.8466 61.5376 45.0269 60.8211C47.79 60.1988 50.2355 59.0099 50.2597 58.9981L50.2688 58.9934L50.2787 58.9891C50.2922 58.9833 51.6547 58.3951 52.4928 57.5944C53.3423 56.7819 53.7286 55.719 53.7326 55.7084C53.7496 55.6623 55.2372 51.6979 56.3622 47.4631C57.3976 43.566 58.1078 39.258 58.115 39.2149C58.1261 39.1582 58.984 34.8052 59.2246 30.1747C59.427 26.2831 59.0249 21.8648 59.0205 21.8205C59.0181 21.7873 58.8109 19.1707 57.7609 17.4597C56.8172 15.9225 54.995 15.1676 54.9767 15.1597L54.9609 15.1535L54.9454 15.1453C54.9243 15.1347 52.8088 14.0749 48.7959 13.2018C45.5954 12.5056 41.1467 12.0086 37.463 11.9366C33.2517 11.854 28.7307 12.1475 25.3705 12.722C21.3407 13.4108 18.7225 14.4342 18.6963 14.4444L18.6744 14.4526L18.6518 14.4588C18.6256 14.4659 16.0146 15.1817 14.6418 16.9247C13.2471 18.6952 13.0213 21.6037 13.0193 21.6331L13.0176 21.6507C13.0136 21.6801 12.7214 24.1886 12.7214 27.2631C12.7214 27.8141 12.7306 28.3835 12.7532 28.9604C12.9104 33.0551 13.6262 37.5936 13.6333 37.639C13.6417 37.6836 14.6115 43.0118 15.7175 47.5022C16.5369 50.831 17.6041 53.7759 17.6148 53.8049L17.6219 53.826L17.6275 53.8476C17.6315 53.8625 17.9951 55.3566 18.5866 56.3996C19.1015 57.3067 19.8598 57.8401 19.8677 57.8448L19.88 57.8535L19.8924 57.8636C19.8979 57.8675 20.414 58.2843 21.206 58.7183C22.1179 59.2177 23.3399 59.7531 23.3919 59.775C23.478 59.8086 26.172 60.8399 29.7235 61.3087C33.4322 61.7983 38.1287 61.7184 38.1759 61.7177L38.176 61.7176Z" fill="url(#paint1_radial_358_1682)" stroke="#6D0115" stroke-width="4.5"/>
<path d="M22.0796 58.8644C21.9189 58.7908 21.8311 58.7481 21.8311 58.7481C21.822 58.7442 21.7763 58.7243 21.7021 58.6902L21.6751 58.5305C21.0391 55.0236 20.0685 48.6164 19.7509 40.8035C19.3582 31.6157 19.3733 20.3554 19.4106 14.9011V14.5066C19.5178 14.4706 19.629 14.4342 19.7437 14.3975L19.7453 14.7927C19.7076 20.2004 19.6897 31.5461 20.0847 40.7898C20.4075 48.7389 21.4079 55.2264 22.0403 58.673L22.0796 58.8644Z" fill="#6D0115"/>
<path d="M23.1304 59.3136C23.0017 59.2616 22.8806 59.2115 22.7683 59.1645L22.7373 58.9184C22.274 55.6157 21.4542 48.8829 21.0648 40.2701C20.6511 31.114 20.7258 19.6052 20.7905 14.3732L20.7913 14.0793C20.9 14.048 21.0112 14.0167 21.1247 13.9854L21.1255 14.3098C21.0608 19.5058 20.9838 31.0674 21.3987 40.2556C21.7969 49.0634 22.6456 55.8995 23.101 59.1035L23.1304 59.3136Z" fill="#6D0115"/>
<path d="M30.9827 12.6621C31.0668 22.8044 31.3094 52.0618 31.3801 60.5373L31.3864 61.2531C31.278 61.2418 31.1669 61.2292 31.0545 61.2163L31.0462 60.5362C30.9755 52.0669 30.7334 22.8854 30.6492 12.7064L30.6409 12.4097C30.7532 12.4003 30.8656 12.3909 30.9779 12.3823L30.9827 12.6621Z" fill="#6D0115"/>
<path d="M35.3321 12.5294C35.3611 21.417 35.4579 50.8357 35.4905 60.7776L35.4929 61.4542C35.3758 61.4558 35.2634 61.457 35.1562 61.4574V60.6895C35.1229 50.6201 35.026 21.1454 34.9974 12.4199L34.9958 12.1929C35.1042 12.1913 35.213 12.1901 35.3222 12.189L35.3321 12.5294Z" fill="#6D0115"/>
<path d="M37.0001 12.5734C36.9509 22.4429 36.804 52.0623 36.7607 60.7781L36.7599 61.4308C36.6444 61.434 36.5321 61.4367 36.4209 61.4391L36.4257 60.9092C36.4677 52.3468 36.6166 22.3626 36.6658 12.5076L36.6579 12.1895C36.7742 12.1906 36.8901 12.1918 37.0061 12.1938L37.0001 12.5734Z" fill="#6D0115"/>
<path d="M41.5135 60.6053C41.7533 56.6385 42.2059 48.2292 42.3917 38.7139C42.5814 29.0158 42.4969 17.9793 42.4385 12.7958L42.4194 12.4624C42.5548 12.4741 42.689 12.4863 42.8228 12.4988L42.8411 12.9262C42.899 18.1667 42.9808 29.1015 42.793 38.7213C42.6084 48.1576 42.1618 56.5074 41.9208 60.5211L41.8859 61.0945C41.7454 61.1113 41.6239 61.1273 41.481 61.1426L41.5135 60.6053Z" fill="#6D0115"/>
<path d="M52.9184 56.6739C52.7398 56.9174 52.5524 57.1201 52.3928 57.2747L52.5532 56.4235C53.2511 52.8082 54.1535 47.2158 54.6041 40.6489C55.1392 32.8422 55.2079 22.1677 55.1964 16.1022L55.2035 15.521C55.3337 15.593 55.4655 15.6693 55.5974 15.7515L55.5981 16.526C55.6057 22.6612 55.5279 33.0371 55.0042 40.6759C54.5624 47.1226 53.6854 52.6352 52.9911 56.2689L52.9184 56.6739Z" fill="#6D0115"/>
<path d="M56.7769 43.5771C57.0659 41.292 57.3327 38.7274 57.5165 36.0185C57.9202 30.0649 57.9306 23.3199 57.8794 19.0276L57.8702 18.311C58.0385 18.6867 58.1743 19.0718 58.2839 19.4416L58.2918 20.1073C58.328 24.4052 58.289 30.5596 57.9171 36.0451C57.8393 37.2 57.7456 38.3287 57.6419 39.4209L57.5193 40.6275C57.262 41.9174 56.9353 43.4902 56.5764 45.0865L56.7769 43.5771Z" fill="#6D0115"/>
<path d="M51.4977 57.9792C51.3707 58.0657 51.2186 58.1639 51.0471 58.2676L51.169 57.5827C51.8383 53.9001 52.8796 47.2158 53.2889 39.4483C53.7379 30.9157 53.7395 20.773 53.7018 15.5806L53.6863 14.8452C53.8007 14.8855 53.9356 14.9352 54.0853 14.9951L54.104 15.68C54.1409 20.9072 54.1365 30.983 53.6895 39.469C53.2917 47.0225 52.2969 53.5561 51.6251 57.3139L51.4977 57.9792Z" fill="#6D0115"/>
<path d="M46.5718 59.6671C46.8882 56.2357 47.4683 49.1323 47.7469 40.5629C48.0598 30.9427 48.061 19.5426 48.0379 14.0355L48.0256 13.2524C48.1654 13.281 48.3031 13.31 48.4381 13.3393L48.4397 14.0974C48.4623 19.6315 48.4599 30.9865 48.1479 40.5758C47.8712 49.0889 47.2971 56.1579 46.9792 59.6248L46.9383 60.0459C46.8053 60.0851 46.6727 60.1254 46.5254 60.1665L46.5718 59.6671Z" fill="#6D0115"/>
<path d="M45.1861 59.9916C45.5335 57.0775 46.1028 51.4292 46.3374 44.0827C46.6796 33.3937 46.6375 19.914 46.5927 13.6763L46.5851 12.9824C46.7181 13.0051 46.8491 13.0278 46.9789 13.0517L46.994 13.7769C47.0385 20.062 47.079 33.4591 46.738 44.096C46.5065 51.3294 45.9519 56.9214 45.6018 59.8875L45.5371 60.4244C45.4037 60.4569 45.2611 60.4929 45.1206 60.5254L45.1861 59.9916Z" fill="#6D0115"/>
<path d="M44.0615 60.2283C44.333 57.1472 44.8019 51.0445 45.0222 43.6202C45.3299 33.2443 45.2505 20.1054 45.1766 13.2552L45.1687 12.7656C45.3053 12.784 45.4403 12.8032 45.5736 12.8228L45.5808 13.4775C45.6538 20.3911 45.7281 33.3632 45.4236 43.6319C45.2068 50.9416 44.7491 56.9723 44.4756 60.107L44.4255 60.6756C44.2874 60.7042 44.1572 60.7308 44.0146 60.7582L44.0615 60.2283Z" fill="#6D0115"/>
<path d="M42.7582 60.4897C42.9884 56.8908 43.4239 49.3714 43.6141 41.3056C43.867 30.5838 43.8793 18.6237 43.8682 13.025L43.8567 12.6035C43.9928 12.6188 44.1278 12.634 44.2616 12.6497L44.2699 13.1248C44.2806 18.7669 44.2671 30.6526 44.0154 41.3146C43.8273 49.2841 43.4005 56.721 43.1679 60.3758L43.1329 60.9151C42.9896 60.9389 42.8741 60.9593 42.7268 60.9816L42.7582 60.4897Z" fill="#6D0115"/>
<path d="M41.3785 12.8379C41.3614 18.5677 41.3038 31.5664 41.118 42.6542C40.9894 50.3294 40.7452 57.0383 40.6031 60.5178L40.5722 61.2277C40.459 61.2371 40.3451 61.2469 40.2319 61.2559L40.2645 60.625C40.4054 57.1839 40.6535 50.4108 40.7842 42.6487C40.9711 31.5065 41.0283 18.4334 41.045 12.7502L41.0474 12.3569C41.1601 12.3648 41.2725 12.3722 41.3844 12.3804L41.3785 12.8379Z" fill="#6D0115"/>
<path d="M39.7263 12.5735C39.7728 17.6302 39.8418 27.5263 39.7803 36.8518C39.7132 46.9467 39.4945 56.5853 39.3909 60.7352L39.3786 61.316C39.2646 61.3234 39.1515 61.33 39.0383 61.3367L39.0538 60.844C39.1566 56.7618 39.3786 47.0383 39.446 36.8491C39.5076 27.5783 39.4397 17.7421 39.3932 12.6612L39.3893 12.2632C39.5008 12.2683 39.612 12.2734 39.7231 12.2788L39.7263 12.5735Z" fill="#6D0115"/>
<path d="M38.4161 12.5516C38.4848 18.351 38.58 28.7312 38.5336 38.5209C38.4903 47.6288 38.2954 56.352 38.1779 60.9097L38.1679 61.3813C38.0548 61.3864 37.9429 61.3911 37.8313 61.3958L37.8452 60.8436C37.9627 56.2714 38.1556 47.5862 38.1993 38.5193C38.2454 28.7786 38.1513 18.4536 38.0826 12.6393L38.0751 12.2158C38.1874 12.219 38.2998 12.2225 38.4117 12.2256L38.4161 12.5516Z" fill="#6D0115"/>
<path d="M26.6046 60.4615C26.4883 60.4326 26.3728 60.4028 26.2581 60.3719L26.2382 60.1551C25.9575 57.1268 25.393 50.3169 25.1596 42.3232C24.8614 32.1257 24.9607 19.3806 25.0337 13.3792L25.0309 13.1162C25.1425 13.097 25.2545 13.0779 25.368 13.0591L25.3688 13.3252C25.2957 19.2992 25.1949 32.0889 25.4938 42.3138C25.7305 50.4108 26.3069 57.2908 26.5828 60.249L26.6046 60.4615Z" fill="#6D0115"/>
<path d="M24.3397 59.7732C24.219 59.7301 24.1011 59.6875 23.9863 59.6452L23.9589 59.3947C23.448 55.1321 22.4599 45.9244 22.1467 36.1559C21.8815 27.8914 22.1105 18.6672 22.265 14.0281L22.2709 13.688C22.3817 13.661 22.494 13.634 22.608 13.6074L22.6036 13.9005C22.4496 18.488 22.213 27.806 22.4805 36.1457C22.7981 46.052 23.8109 55.381 24.3138 59.5474L24.3397 59.7732Z" fill="#6D0115"/>
<path d="M14.8271 42.7837C14.419 40.7964 14.1804 39.3449 14.176 39.3194L14.1189 38.4491C13.8834 35.4756 13.6718 32.1444 13.6226 29.304C13.5643 25.9454 13.5889 22.5872 13.6278 20.0755L13.6139 19.7554C13.7119 19.3742 13.8342 18.9746 13.9863 18.5864L13.9577 20.3722C13.9215 22.8463 13.9009 26.0718 13.9573 29.2989C14.0196 32.8923 14.3424 37.2746 14.6445 40.7185L14.8271 42.7837Z" fill="#6D0115"/>
<path d="M17.7324 53.3889C17.501 52.7099 17.2358 51.9088 16.9606 51.0337L16.757 49.8589C16.2361 46.7794 15.774 43.5084 15.643 40.996C14.9618 32.6441 14.9272 23.0032 14.9701 17.8714L14.9785 16.9271C15.0845 16.8112 15.194 16.702 15.3056 16.5991L15.3076 17.4922C15.2599 22.5093 15.2786 32.4187 15.9765 40.974C16.1289 43.9033 16.734 47.8685 17.3557 51.3546L17.7324 53.3889Z" fill="#6D0115"/>
<path d="M19.3749 55.1456C18.6881 51.76 17.8409 46.7667 17.4026 41.0573C16.7222 32.1979 16.7456 21.7727 16.8127 16.6151L16.8206 15.5498C16.723 15.5999 16.6067 15.6629 16.4776 15.7384L16.478 16.6264C16.4113 21.7958 16.3887 32.2202 17.0692 41.0823C17.5059 46.7695 18.3475 51.749 19.0339 55.1448L19.461 57.1595C19.5349 57.2428 19.6131 57.325 19.6961 57.4044C19.7564 57.4616 19.8195 57.5183 19.8846 57.5739L19.3749 55.1456Z" fill="#6D0115"/>
<path d="M25.4209 59.9486C25.1101 57.1559 24.561 51.5001 24.3336 44.6741C23.9592 33.4435 23.9326 19.4261 23.9401 13.6036L23.937 13.3198C23.823 13.3425 23.7103 13.3652 23.5991 13.3883L23.6059 13.6356C23.5983 19.4801 23.6257 33.4705 23.9993 44.6851C24.222 51.3596 24.7516 56.9179 25.0664 59.7822L25.0926 60.0288C25.2069 60.066 25.3229 60.1024 25.4404 60.138L25.4209 59.9486Z" fill="#6D0115"/>
<path d="M18.3181 14.8977C18.1947 14.945 18.0811 14.9896 17.9775 15.0315L17.9712 15.5336C17.8592 20.775 17.7123 31.2546 18.1288 38.1408C18.7195 47.9058 19.9434 54.8277 20.5485 57.8008L20.6048 58.0935C20.7331 58.1741 20.8792 58.2602 20.9994 58.3283L20.9244 57.969C20.3412 55.1505 19.0689 48.1371 18.4627 38.1213C18.0434 31.1892 18.1963 20.604 18.3082 15.4123L18.3181 14.8848" fill="#6D0115"/>
<path d="M26.8059 12.8379C26.6927 12.8539 26.5804 12.8704 26.468 12.8864L26.4736 13.167C26.4156 18.6264 26.3414 29.423 26.518 38.8753C26.686 47.8634 27.2374 56.0595 27.5482 60.1174L27.5879 60.6818C27.7019 60.7049 27.8158 60.7276 27.9301 60.7495L27.8936 60.2513C27.5855 56.256 27.0222 47.9687 26.8519 38.869C26.6748 29.4058 26.7499 18.5943 26.8078 13.1451L26.8059 12.8379Z" fill="#6D0115"/>
<path d="M28.2259 12.6538C28.1115 12.6675 27.998 12.6812 27.8845 12.6953L27.8837 12.9688C27.7971 17.4201 27.6689 26.6297 27.8563 35.7995C28.0587 46.2274 28.6046 56.0727 28.8682 60.3975L28.8984 60.9207C29.0135 60.9391 29.1274 60.9575 29.2414 60.9747L29.2037 60.403C28.9405 56.0946 28.393 46.2364 28.1905 35.7928C28.0032 26.609 28.1322 17.3849 28.2187 12.9473L28.2259 12.6538Z" fill="#6D0115"/>
<path d="M29.5932 12.5054C29.482 12.5159 29.3705 12.5277 29.2593 12.539L29.2569 12.8161C29.2196 17.5933 29.168 27.6366 29.2827 37.3808C29.3943 46.83 29.6793 56.172 29.8222 60.4502L29.8425 61.0635C29.9556 61.0791 30.068 61.0944 30.1787 61.1089L30.1565 60.4483C30.0136 56.1751 29.7281 46.8292 29.617 37.3765C29.5015 27.5877 29.5543 17.4967 29.5916 12.7492L29.5932 12.5054Z" fill="#6D0115"/>
<path d="M32.4923 12.2798C32.376 12.2864 32.2596 12.2931 32.1433 12.3001L32.1516 12.4868C32.2096 21.2441 32.4077 51.1018 32.4716 60.7784L32.4772 61.3576C32.5955 61.3678 32.7078 61.3772 32.8134 61.3854L32.8063 60.8003C32.742 51.1418 32.5439 21.2038 32.4859 12.4641L32.4923 12.2798Z" fill="#6D0115"/>
<path d="M33.8991 12.2173C33.786 12.2208 33.672 12.2251 33.5581 12.229L33.5664 12.5519C33.5835 21.8199 33.6375 51.6784 33.6538 60.6459L33.6486 61.4434C33.7356 61.4489 33.7987 61.452 33.8348 61.454C33.8539 61.454 33.9059 61.4552 33.9877 61.4559L33.9884 60.6243C33.9718 51.6315 33.9178 21.8144 33.9007 12.5523L33.8991 12.2173Z" fill="#6D0115"/>
<path d="M47.7053 59.2127C48.1885 55.1477 49.0654 46.7466 49.4366 36.6724C49.7133 29.173 49.4938 19.1125 49.3493 14.0817L49.3235 13.54C49.464 13.5733 49.6002 13.6066 49.7336 13.6398L49.7538 14.1963C49.8979 19.2726 50.1123 29.2391 49.8376 36.6869C49.4668 46.7482 48.5922 55.1442 48.1075 59.2287L48.0495 59.6944C47.93 59.7351 47.7895 59.7821 47.6279 59.8334L47.7053 59.2127Z" fill="#6D0115"/>
<path d="M49.3827 58.632C49.7734 55.0934 50.459 48.0992 50.8723 39.3752C51.2689 30.9983 51.2482 20.1829 51.2002 14.4488L51.1918 14.0317C51.0624 13.9941 50.9274 13.9561 50.7869 13.917L50.7984 14.4117C50.8469 20.1305 50.8683 30.9693 50.4713 39.3568C50.0533 48.1865 49.3561 55.2406 48.9687 58.7267L48.894 59.3588C49.0143 59.304 49.1561 59.2386 49.3105 59.1666L49.3827 58.632Z" fill="#6D0115"/>
<path d="M50.6106 57.8552C51.0834 54.6884 51.7273 49.5096 52.0921 42.895C52.6352 33.056 52.7333 20.5042 52.7488 14.893L52.7408 14.5205C52.6277 14.4809 52.4951 14.4363 52.3434 14.3862L52.3478 14.7627C52.3335 20.3046 52.2382 32.9668 51.6912 42.8735C51.3113 49.7573 50.6296 55.0797 50.154 58.1906L50.0615 58.8023C50.2096 58.7283 50.3577 58.652 50.5002 58.5765L50.6106 57.8552Z" fill="#6D0115"/>
<path d="M54.1223 53.7506C54.1223 53.7506 54.4824 52.7585 54.9266 51.3395L55.0949 50.2367C55.642 46.5767 56.2192 42.0116 56.6023 37.0653C57.1117 30.4808 57.0005 22.4605 56.8588 17.6324L56.8278 16.7213C56.6944 16.5844 56.5543 16.4548 56.4082 16.3335L56.4408 17.0751C56.5888 21.8124 56.7306 30.2018 56.2018 37.0356C55.7571 42.7795 55.0501 48.0071 54.4332 51.896L54.1223 53.7506Z" fill="#6D0115"/>
<path fill-rule="evenodd" clip-rule="evenodd" d="M25.7867 39.3562V35.8817H22.8066L22.8177 27.1359H26.7084L26.6875 23.624H18.5996L19.3307 50.5023H22.8846L22.8066 39.3562H25.7867Z" fill="#1A1A1A"/>
<path fill-rule="evenodd" clip-rule="evenodd" d="M28.0918 23.624L28.5414 50.5023H32.2112L32.2857 23.624H28.0918Z" fill="#1A1A1A"/>
<path fill-rule="evenodd" clip-rule="evenodd" d="M51.6617 50.5023L52.4158 27.0104H55.2907L55.2687 23.624H45.2959V27.0142H48.1947L48.1113 50.5023H51.6617Z" fill="#1A1A1A"/>
<path fill-rule="evenodd" clip-rule="evenodd" d="M37.8201 36.064L37.8604 26.9343H39.9093C40.8382 28.9677 41.4351 31.6566 41.903 36.064H37.8201ZM34.5463 50.5018H34.9062H37.5548H37.9435L37.9814 39.3873H42.0521C42.3721 41.3491 42.4505 47.4047 42.4696 50.5018H42.8062H45.465H45.7652C46.0761 36.7798 45.1102 29.0236 42.4414 23.624H34.2354L34.5463 50.5018Z" fill="#1A1A1A"/>
<path fill-rule="evenodd" clip-rule="evenodd" d="M26.221 35.4001H23.2335L23.2446 26.6544H27.1451L27.124 23.1426H19.0159L19.7488 50.0204H23.3116L23.2335 38.8745H26.221V35.4001Z" fill="url(#paint2_radial_358_1682)"/>
<path fill-rule="evenodd" clip-rule="evenodd" d="M32.7364 23.1426H28.532L28.9827 50.0204H32.6617L32.7364 23.1426Z" fill="url(#paint3_radial_358_1682)"/>
<path fill-rule="evenodd" clip-rule="evenodd" d="M48.6017 50.0204H52.1611L52.917 26.5288H55.7992L55.7771 23.1426H45.7793V26.5327H48.6854L48.6017 50.0204Z" fill="url(#paint4_radial_358_1682)"/>
<path fill-rule="evenodd" clip-rule="evenodd" d="M38.2852 35.5824L38.3255 26.4528H40.3796C41.3109 28.4861 41.9092 31.175 42.3784 35.5824H38.2852ZM35.0031 50.0199H35.3639H38.0192H38.4089L38.4468 38.9056H42.5278C42.8486 40.8674 42.9272 46.9228 42.9463 50.0199H43.2837H45.9492H46.2502C46.5619 36.2981 45.5936 28.5421 42.9181 23.1426H34.6914L35.0031 50.0199Z" fill="url(#paint5_radial_358_1682)"/>
</g>
<defs>
<linearGradient id="paint0_linear_358_1682" x1="2.34276" y1="67.9312" x2="69.6806" y2="3.56066" gradientUnits="userSpaceOnUse">
<stop stop-color="#8C8C8C"/>
<stop offset="0.5" stop-color="#464646"/>
<stop offset="0.75" stop-color="white"/>
<stop offset="1" stop-color="white"/>
</linearGradient>
<radialGradient id="paint1_radial_358_1682" cx="0" cy="0" r="1" gradientUnits="userSpaceOnUse" gradientTransform="translate(36.0015 36.8229) scale(23.52 25.14)">
<stop stop-color="#E60A47"/>
<stop offset="1" stop-color="#7C0626"/>
</radialGradient>
<radialGradient id="paint2_radial_358_1682" cx="0" cy="0" r="1" gradientUnits="userSpaceOnUse" gradientTransform="translate(37.4075 36.5814) scale(18.3916 13.439)">
<stop stop-color="#D3D1D2"/>
<stop offset="0.5" stop-color="#C9C7C8"/>
<stop offset="1" stop-color="#8D8B8C"/>
</radialGradient>
<radialGradient id="paint3_radial_358_1682" cx="0" cy="0" r="1" gradientUnits="userSpaceOnUse" gradientTransform="translate(37.4072 36.5814) scale(18.3916 13.439)">
<stop stop-color="#D3D1D2"/>
<stop offset="0.5" stop-color="#C9C7C8"/>
<stop offset="1" stop-color="#8D8B8C"/>
</radialGradient>
<radialGradient id="paint4_radial_358_1682" cx="0" cy="0" r="1" gradientUnits="userSpaceOnUse" gradientTransform="translate(37.4076 36.5814) scale(18.3916 13.439)">
<stop stop-color="#D3D1D2"/>
<stop offset="0.5" stop-color="#C9C7C8"/>
<stop offset="1" stop-color="#8D8B8C"/>
</radialGradient>
<radialGradient id="paint5_radial_358_1682" cx="0" cy="0" r="1" gradientUnits="userSpaceOnUse" gradientTransform="translate(37.408 36.5816) scale(18.3916 13.439)">
<stop stop-color="#D3D1D2"/>
<stop offset="0.5" stop-color="#C9C7C8"/>
<stop offset="1" stop-color="#8D8B8C"/>
</radialGradient>
<clipPath id="clip0_358_1682">
<rect width="72" height="72" fill="white"/>
</clipPath>
</defs>
</svg>
