<svg width="226" height="16" viewBox="0 0 226 16" fill="none" xmlns="http://www.w3.org/2000/svg">
<path d="M66.124 0.584961H69.1278V10.7832C69.1278 10.7832 69.0123 11.9595 69.9366 12.1591H89.5663C89.7828 12.096 89.9732 11.9649 90.1094 11.7852C90.2455 11.6055 90.3203 11.3868 90.3225 11.1613L90.3435 0.584961H93.5889V12.3061C93.5778 12.935 93.3689 13.5443 92.9918 14.0477C92.6147 14.5511 92.0887 14.9229 91.4884 15.1104H68.4241C67.7982 15.0554 67.2153 14.7686 66.7898 14.3062C66.3643 13.8438 66.1269 13.2391 66.124 12.6107V0.584961Z" fill="#EF7B0F"/>
<path d="M126.526 0.605957H98.8508V3.80932H126.526V0.605957Z" fill="#EF7B0F"/>
<path d="M126.526 6.41406H98.8508V9.61743H126.526V6.41406Z" fill="#EF7B0F"/>
<path d="M126.526 12.2324H98.8508V15.4358H126.526V12.2324Z" fill="#EF7B0F"/>
<path d="M132.04 15.4361V2.83272C132.086 2.20402 132.375 1.61785 132.845 1.19833C133.316 0.778813 133.931 0.558882 134.561 0.585111H156.974C157.669 0.685283 158.307 1.02595 158.777 1.54787C159.247 2.0698 159.52 2.73997 159.547 3.44188V15.4151H156.396L156.333 10.3632H135.327V15.4151L132.04 15.4361ZM156.396 6.41418V4.92278C156.413 4.61548 156.314 4.31301 156.12 4.07423C155.926 3.83544 155.65 3.67743 155.346 3.63093H136.556C135.012 3.69395 135.233 4.97529 135.233 4.97529V6.41418H156.396Z" fill="#EF7B0F"/>
<path d="M197.829 0.584961H225.305V3.6938H213.226L213.184 15.4465H210.097L209.992 3.65179L197.829 3.6938V0.584961Z" fill="#EF7B0F"/>
<path d="M3.75846 6.40353H24.302C27.3688 6.34051 27.5789 8.65113 27.5789 8.65113V13.0728C27.5249 13.6421 27.2928 14.1799 26.9158 14.6098C26.5387 15.0396 26.0357 15.3398 25.4783 15.4675H0.0194532V12.3166H23.7663C24.344 12.4742 24.5751 11.6024 24.5751 11.6024V10.7202C24.5691 10.4826 24.4777 10.2552 24.3175 10.0796C24.1574 9.90408 23.9393 9.79216 23.7033 9.76443H2.4246C2.09208 9.75102 1.76555 9.67161 1.464 9.53084C1.16245 9.39007 0.891898 9.19075 0.668088 8.94446C0.444278 8.69817 0.271675 8.40983 0.16032 8.09623C0.0489652 7.78262 0.00108113 7.45 0.0194532 7.11772V2.9691C0.146642 2.30849 0.496484 1.71146 1.01063 1.2776C1.52477 0.843728 2.17212 0.599258 2.84471 0.584961L27.5789 0.584961V3.84084L3.95801 3.96687C3.95801 3.96687 3.10728 3.79883 3.10728 4.56553L3.1703 5.73135C3.1703 5.73135 3.1703 6.40353 3.80047 6.40353" fill="#EF7B0F"/>
<path d="M168.663 6.38252H189.207C192.274 6.31951 192.484 8.63013 192.484 8.63013V13.0518C192.431 13.6216 192.2 14.1602 191.823 14.5904C191.445 15.0206 190.941 15.3202 190.383 15.4465H164.914V12.2956H188.661C189.238 12.4427 189.47 11.5709 189.47 11.5709V10.6887C189.463 10.4523 189.371 10.2262 189.211 10.0524C189.051 9.87854 188.833 9.76877 188.598 9.74343H167.33C166.997 9.73133 166.67 9.65325 166.368 9.51374C166.066 9.37423 165.795 9.17606 165.57 8.93077C165.345 8.68547 165.172 8.39793 165.059 8.08488C164.946 7.77182 164.897 7.4395 164.914 7.10722V2.90609C165.054 2.25536 165.411 1.67145 165.926 1.24982C166.441 0.828196 167.084 0.593802 167.75 0.584961L192.484 0.584961V3.83033L168.863 3.94587C168.863 3.94587 168.075 3.78832 168.012 4.54453V5.72084C168.012 5.72084 168.075 6.38252 168.642 6.38252" fill="#EF7B0F"/>
<path d="M35.4139 0.584961H58.1315C58.7119 0.684182 59.2485 0.957173 59.6704 1.36786C60.0924 1.77854 60.3798 2.30759 60.4946 2.88508L60.5786 13.0728C60.4866 13.6592 60.2115 14.2015 59.7927 14.6221C59.374 15.0428 58.833 15.3203 58.247 15.415H35.2773C34.5948 15.3123 33.9737 14.9625 33.5322 14.4319C33.0907 13.9013 32.8596 13.227 32.8827 12.5372V2.9691C32.9731 2.34413 33.2725 1.76821 33.7322 1.33524C34.1918 0.902279 34.7846 0.63781 35.4139 0.584961ZM36.086 4.429V11.2978C36.086 11.2978 36.4221 12.1696 37.1363 12.1696H56.6716C56.9102 12.1485 57.1323 12.0386 57.2937 11.8616C57.4552 11.6846 57.5443 11.4534 57.5433 11.2138V4.45C57.5433 4.45 57.5433 3.65179 56.5561 3.65179H36.9158C36.7026 3.65665 36.499 3.74138 36.3454 3.88921C36.1917 4.03704 36.0992 4.23718 36.086 4.45" fill="#EF7B0F"/>
</svg>
