<svg width="101" height="49" viewBox="0 0 101 49" fill="none" xmlns="http://www.w3.org/2000/svg">
<g clip-path="url(#clip0_358_1745)">
<path d="M18.6421 36.5759V45.8117L15.5079 36.9094C15.4412 36.676 15.2745 36.5759 14.9411 36.5759H12.0403V47.8123H14.0409V38.6765L17.1417 47.4455C17.2084 47.6789 17.4084 47.7789 17.6418 47.7789H20.6426V36.5426H18.6421V36.5759ZM28.9782 36.5759V47.8123H31.3121V43.011H35.4799V40.9438H31.3121V38.6098H35.5466V36.5426H28.9782V36.5759ZM82.4257 36.5759V38.7432H84.9931V47.8123H87.327V38.7098H89.8944V36.5426H82.3924L82.4257 36.5759ZM43.6487 47.8123H46.1494V36.5759H43.6487V47.8123ZM71.9896 47.8123H74.4903V36.5759H71.9896V47.8123ZM97.8298 47.8123H100.297V36.5759H97.8298V47.8123ZM0.970703 47.8123H3.47137V36.5759H0.970703V47.8123ZM63.4207 36.5759H61.4201V45.8117L58.286 36.9094C58.2193 36.676 58.0526 36.5759 57.7525 36.5759H54.8184V47.8123H56.8189V38.6765L59.9197 47.4455C59.9864 47.6789 60.1865 47.7789 60.4199 47.7789H63.4207V36.5426V36.5759ZM60.82 18.1377L50.6506 4.46737L40.4812 18.1377C37.047 17.8043 31.1454 15.5703 31.1454 11.6026C31.1454 6.60128 39.8144 1.93337 50.6839 1.93337C62.1203 1.93337 70.2225 6.60128 70.2225 11.6026C70.2225 15.6037 64.2876 17.8376 60.8867 18.1043M50.6506 0.466309C36.5802 0.466309 26.7776 5.96777 26.7776 13.0697C26.7776 16.4039 28.9115 20.1382 33.446 22.4055C37.6805 24.506 43.6154 25.2396 44.449 25.3396L50.6506 7.23478L56.8523 25.3396C60.6455 24.9147 64.354 23.9257 67.8552 22.4055C72.3897 20.1382 74.5236 16.4039 74.5236 13.0697C74.4903 5.93443 64.721 0.466309 50.6506 0.466309Z" fill="#231F20"/>
</g>
<defs>
<clipPath id="clip0_358_1745">
<rect width="100.027" height="48.0461" fill="white" transform="translate(0.637695 0.132812)"/>
</clipPath>
</defs>
</svg>
