<svg width="128" height="30" viewBox="0 0 128 30" fill="none" xmlns="http://www.w3.org/2000/svg">
<g clip-path="url(#clip0_358_1680)">
<path d="M73.7368 26.4726C73.7368 26.7139 73.813 26.8539 73.953 26.8539C74.0712 26.8539 74.1692 26.7905 74.2581 26.7267L113.872 1.0168C114.541 0.548948 115.343 0.308337 116.159 0.330376H124.865C126.199 0.330376 127.101 1.21983 127.101 2.5544V19.1775C127.101 21.1854 126.657 22.3548 124.877 23.4222L114.316 29.7767C114.211 29.8499 114.086 29.904 113.961 29.904C113.835 29.904 113.707 29.8023 113.707 29.4337V10.0401C113.707 9.81119 113.643 9.65882 113.49 9.65882C113.379 9.65882 113.273 9.71587 113.185 9.78605L84.2343 28.5953C83.5734 29.04 82.7981 29.2817 82.0103 29.269H62.8197C61.4724 29.269 60.583 28.3795 60.583 27.0322V3.07607C60.583 2.89818 60.5068 2.73305 60.354 2.73305C60.2429 2.73305 60.1375 2.79121 60.0489 2.86027L40.948 14.323C40.7574 14.4503 40.7067 14.5392 40.7067 14.6282C40.7067 14.7043 40.745 14.7805 40.8719 14.9205L54.5211 28.557C54.699 28.7349 54.8262 28.8749 54.8262 29.0273C54.8262 29.1545 54.6228 29.2562 54.3815 29.2562H42.0537C41.0877 29.2562 40.3378 29.1162 39.8169 28.5953L31.5434 20.3346C31.48 20.2588 31.3888 20.2074 31.2893 20.2074C31.1996 20.2074 31.1122 20.2378 31.0353 20.2835L17.2081 28.5953C16.3693 29.1038 15.7973 29.2434 14.9713 29.2434H2.24979C0.89008 29.2562 0.000244141 28.354 0.000244141 27.0194V10.7138C0.000244141 8.69318 0.444974 7.5365 2.23703 6.46915L12.8618 0.0894341C12.9443 0.0332582 13.0415 0.00235113 13.1414 0.000488281C13.3065 0.000488281 13.3954 0.165619 13.3954 0.534163V22.368C13.3954 22.5969 13.4461 22.6982 13.6116 22.6982C13.7242 22.6982 13.8278 22.6348 13.9295 22.571L49.8194 0.97852C50.5058 0.508269 51.3446 0.279712 52.1834 0.317617H71.5008C72.8354 0.317617 73.7376 1.20707 73.7376 2.54164L73.7248 26.4726H73.7368Z" fill="black"/>
</g>
<defs>
<clipPath id="clip0_358_1680">
<rect width="127.102" height="29.9039" fill="white"/>
</clipPath>
</defs>
</svg>
