<svg width="91" height="38" viewBox="0 0 91 38" fill="none" xmlns="http://www.w3.org/2000/svg">
<path fill-rule="evenodd" clip-rule="evenodd" d="M71.2523 1.36768L80.2817 17.7806H52.3852L43.3985 1.36768H71.2523ZM44.8049 20.4734C41.6106 20.4734 38.2887 20.1741 36.2444 18.4218C34.5404 17.0969 33.6033 15.5582 32.6239 13.806C32.4109 13.4585 29.9514 8.96941 28.054 5.50604L28.0531 5.50431C26.9154 3.42771 25.9798 1.72023 25.8522 1.49601H0C0.928904 3.19902 1.85781 4.90919 2.78776 6.62131C5.05553 10.7964 7.3297 14.9833 9.6252 19.1056C12.436 24.2347 15.1191 29.0222 20.0168 32.5268C22.3598 34.2787 24.8296 35.4333 27.726 36.16C30.5795 36.844 33.4757 36.9292 36.4141 36.9292H59.4132L50.3841 20.4734H44.8049ZM53.8766 20.4307L62.9061 36.9292H90.7599L81.6877 20.4307H53.8766Z" fill="black"/>
</svg>
