<svg width="98" height="29" viewBox="0 0 98 29" fill="none" xmlns="http://www.w3.org/2000/svg">
<g clip-path="url(#clip0_358_1810)">
<path d="M0.401367 11.5151V8.64156C0.40157 8.11707 0.61001 7.61413 0.980875 7.24327C1.35174 6.8724 1.85468 6.66396 2.37916 6.66376H30.0637V11.1148C23.1165 11.0158 9.54954 11.1148 9.54954 11.1148L28.0897 15.2276C28.9993 15.4247 30.0645 16.2299 30.0645 17.1601V20.016C30.0649 20.2756 30.0141 20.5328 29.915 20.7727C29.816 21.0127 29.6706 21.2308 29.4872 21.4146C29.3038 21.5983 29.086 21.7441 28.8462 21.8437C28.6064 21.9432 28.3494 21.9945 28.0897 21.9946H0.404435V17.5436H20.1793C16.0351 16.6478 6.2619 14.3257 2.3784 13.4415C1.47884 13.2367 0.401367 12.4384 0.401367 11.5151ZM32.5369 19.9385C32.5369 21.5582 34.3122 22.539 35.6712 21.6717C39.9212 18.9554 44.1399 16.2368 48.3861 13.5151C52.5932 16.2115 56.8295 18.9546 61.0244 21.6709C62.3841 22.5528 64.177 21.5666 64.177 19.9385V6.66376H59.7276V16.0604L50.143 9.80722C50.143 9.80722 49.4068 9.29341 48.3869 9.29341C47.3662 9.29341 46.5709 9.80722 46.5709 9.80722L36.9864 16.0604V6.66376H32.5369V19.9385ZM66.1548 8.71978C66.1548 7.10012 67.9302 6.11927 69.2891 6.98662C73.5399 9.70292 77.7586 12.4215 82.0048 15.1432C86.2119 12.4468 90.4482 9.75047 94.6423 7.03416C96.0028 6.15225 97.7957 7.13156 97.7957 8.75965V21.9946H93.3463V13.0926L83.7058 19.0275C83.7058 19.0275 83.0255 19.5221 82.0048 19.5221C80.9849 19.5221 80.2448 19.0275 80.2448 19.0275L70.6051 13.0926V21.9946H66.1541L66.1548 8.71978Z" fill="#EE2737"/>
</g>
<defs>
<clipPath id="clip0_358_1810">
<rect width="97.3944" height="27.6078" fill="white" transform="translate(0.401367 0.529297)"/>
</clipPath>
</defs>
</svg>
