<svg width="73" height="81" viewBox="0 0 73 81" fill="none" xmlns="http://www.w3.org/2000/svg">
<g clip-path="url(#clip0_358_1765)">
<mask id="mask0_358_1765" style="mask-type:alpha" maskUnits="userSpaceOnUse" x="0" y="0" width="73" height="81">
<path d="M72.883 80.9886H0.000976562V0.818359H72.883V80.9886Z" fill="black"/>
</mask>
<g mask="url(#mask0_358_1765)">
<path fill-rule="evenodd" clip-rule="evenodd" d="M34.809 80.0386C24.6189 75.2988 15.7684 67.5309 9.88656 58.1688C4.01896 48.8339 0.935307 38.0224 0.180864 24.1414C-0.0594211 19.7129 -0.0594211 14.189 0.179572 7.25687L0.288088 4.09312L3.4105 3.56992C14.3977 1.73678 25.5115 0.806641 36.4419 0.806641C47.3723 0.806641 58.4848 1.73678 69.4708 3.56992L72.5932 4.09312L72.703 7.25687C72.9433 14.1902 72.9433 19.7142 72.7017 24.1414C71.9459 38.0224 68.8636 48.8339 62.996 58.1688C57.1155 67.5309 48.2624 75.2988 38.0735 80.0386L36.4419 80.797L34.809 80.0386Z" fill="black"/>
</g>
<path fill-rule="evenodd" clip-rule="evenodd" d="M36.4431 3.0874C25.4241 3.0874 13.9862 4.02498 2.37727 6.02147C2.20395 10.6588 2.0064 17.8266 2.33826 23.9092C3.07737 37.4706 6.07339 47.9966 11.7671 57.0355C17.4437 66.048 26.2347 73.7975 36.4431 78.3999C46.6515 73.7975 55.4416 66.048 61.1182 57.0355C66.8127 47.9966 69.8077 37.4706 70.5476 23.9092C70.8779 17.8266 70.6813 10.6588 70.508 6.02147C58.8991 4.02498 47.4621 3.0874 36.4431 3.0874ZM36.4431 4.39387C47.3051 4.39387 58.3343 5.31431 69.2383 7.13093C69.4777 14.0105 69.4775 19.4843 69.2397 23.8386C68.513 37.169 65.5808 47.4973 60.0099 56.3408C54.4398 65.1836 46.0865 72.4881 36.4431 76.9633C26.7989 72.4881 18.4464 65.1836 12.8763 56.3408C7.30536 47.4973 4.37234 37.169 3.64644 23.8386C3.40862 19.4843 3.40849 14.0105 3.64786 7.13093C14.5519 5.31431 25.5803 4.39387 36.4431 4.39387Z" fill="white"/>
<path fill-rule="evenodd" clip-rule="evenodd" d="M13.6525 10.6164C13.5456 10.6138 13.4316 10.6188 13.3112 10.6312C11.6977 10.7995 10.0866 10.9846 8.47705 11.1878V15.9413C8.75606 15.9057 9.0359 15.8715 9.31491 15.8374V14.3667C10.6455 14.2039 11.9783 14.0534 13.3112 13.9146C14.2749 13.8146 14.8135 13.4123 14.8135 12.4168V11.8787C14.8135 11.0273 14.4012 10.6347 13.6525 10.6164ZM13.56 11.3723C13.7768 11.3498 13.9945 11.5143 13.9945 11.7321V12.695C13.9945 12.902 13.7768 13.0999 13.56 13.1231C12.144 13.2681 10.7286 13.4279 9.31491 13.6V11.85C10.7286 11.6771 12.144 11.518 13.56 11.3723Z" fill="white"/>
<path fill-rule="evenodd" clip-rule="evenodd" d="M34.8969 9.43762C36.4054 9.42676 37.9139 9.43218 39.4217 9.45235V10.2184C37.8098 10.1974 36.1971 10.1928 34.5844 10.206C34.3661 10.2083 34.1477 10.3967 34.1477 10.6146V12.9964C34.1477 13.2143 34.3661 13.4298 34.5844 13.4275C36.0308 13.4151 37.4764 13.4174 38.9227 13.4337V12.149C38.0834 12.1397 37.244 12.135 36.4054 12.1358V11.369C37.5183 11.369 38.6313 11.3775 39.7442 11.3938V14.2106C38.1805 14.1873 36.6168 14.1811 35.0531 14.1904C33.9083 14.1982 33.3262 14.0013 33.3262 12.8925V10.8208C33.3262 9.78575 33.8461 9.44538 34.8969 9.43762V9.43762Z" fill="white"/>
<path fill-rule="evenodd" clip-rule="evenodd" d="M51.2331 9.93459C50.3314 9.93714 49.9258 10.2217 49.9258 11.1545V13.2772C49.9258 14.4069 50.5077 14.6273 51.6502 14.7041C52.6994 14.7754 53.7471 14.8543 54.7955 14.9404C55.9263 15.0334 56.5179 14.8411 56.5179 13.7734V11.6507C56.5179 10.5629 55.8331 10.2721 54.7955 10.1868C53.7471 10.1 52.6994 10.0218 51.6502 9.94968C51.5009 9.9396 51.3619 9.93422 51.2331 9.93459ZM51.1833 10.6853C52.5441 10.7745 53.9034 10.8769 55.2627 10.9917C55.4803 11.0103 55.698 11.2156 55.698 11.4637V13.8156C55.698 14.0327 55.4803 14.2319 55.2627 14.2133C53.9034 14.0985 52.5441 13.996 51.1833 13.9061C50.9338 13.889 50.7463 13.6605 50.7463 13.4426V11.0916C50.7463 10.8427 50.9338 10.6683 51.1833 10.6853Z" fill="white"/>
<path fill-rule="evenodd" clip-rule="evenodd" d="M31.2673 9.49219V12.9308C31.2673 14.0186 30.6945 14.2574 29.5404 14.2931C28.5355 14.3241 27.5306 14.3613 26.5257 14.4063C25.4547 14.4544 24.8003 14.2512 24.8003 13.1743V9.73564L25.621 9.69378V13.2774C25.621 13.4953 25.8083 13.6728 26.057 13.6612C27.3744 13.5999 28.6909 13.5503 30.0083 13.5123C30.2585 13.5053 30.4248 13.3146 30.4248 13.0967V9.51313C30.7054 9.50536 30.986 9.4984 31.2673 9.49219V9.49219Z" fill="white"/>
<path fill-rule="evenodd" clip-rule="evenodd" d="M41.7979 9.49658C43.8217 9.54465 45.8447 9.62064 47.8677 9.72453V10.4906C46.119 10.4014 44.3696 10.3324 42.6193 10.2843V11.4543C44.1761 11.4977 45.732 11.5567 47.2872 11.6319V12.3987C45.732 12.3235 44.1761 12.2638 42.6193 12.2211V13.5051C44.3696 13.5532 46.119 13.6222 47.8677 13.7121V14.4781C45.8447 14.375 43.8217 14.299 41.7979 14.2502V9.49658Z" fill="white"/>
<path fill-rule="evenodd" clip-rule="evenodd" d="M22.7402 9.85254V10.6186C20.9923 10.7263 19.2452 10.8543 17.4996 11.0024V12.1731C19.0525 12.0405 20.6061 11.925 22.1604 11.8258V12.5926C20.6061 12.6918 19.0525 12.8074 17.4996 12.9392V14.2239C19.2452 14.075 20.9923 13.9471 22.7402 13.8401V14.6061C20.7188 14.7302 18.6988 14.8822 16.6797 15.0613V10.3069C18.6988 10.1278 20.7188 9.97659 22.7402 9.85254Z" fill="white"/>
<path fill-rule="evenodd" clip-rule="evenodd" d="M58.04 10.4766C60.1649 10.6828 62.2882 10.9201 64.4076 11.1868V11.9536C63.4913 11.8381 62.5734 11.728 61.6548 11.6241V15.6116C61.3757 15.5798 61.0967 15.5488 60.8162 15.5178V11.5302C59.8921 11.4287 58.9657 11.3333 58.04 11.2434V10.4766Z" fill="white"/>
<path fill-rule="evenodd" clip-rule="evenodd" d="M29.9249 19.5739C33.8264 19.2319 39.1058 19.1389 44.149 19.5196C44.4358 19.5413 44.7148 19.6087 44.9799 19.7204C46.6322 20.4135 49.5637 21.9301 52.8233 23.7901C52.9671 23.8723 53.1023 23.9685 53.2266 24.0778C54.0901 24.8369 56.2779 27.0698 56.2779 27.0698L55.5955 26.9349C55.4999 26.9163 55.4105 26.8791 55.3297 26.8248C53.9494 25.8998 51.9342 24.6957 50.2453 23.8467C50.0448 23.7467 49.828 23.6824 49.6049 23.6591C48.7834 23.5715 47.6728 23.4947 46.9462 23.4653C46.5879 23.4506 46.3438 23.3908 45.9933 23.2133C45.3234 22.8745 43.7006 22.1402 42.8923 21.8324C42.5465 21.7006 42.37 21.6696 42.0312 21.675C40.6424 21.6952 37.4784 21.796 35.8626 21.896C35.8067 21.8991 35.753 21.8967 35.6986 21.8882L34.9284 21.768C37.1123 21.3928 42.5107 20.9128 44.7451 20.7958L43.8358 20.4926C43.6602 20.4345 43.4775 20.4034 43.2918 20.3988C42.8067 20.3873 41.7281 20.3658 40.3279 20.3639L39.8496 20.364C37.7287 20.3681 35 20.42 32.4834 20.6089C32.2634 20.6252 32.0489 20.6779 31.8469 20.7671C30.8303 21.2125 28.3514 22.5533 25.8653 23.9305L25.3133 24.2368C24.6705 24.5941 24.0345 24.9495 23.4307 25.2881C23.4307 25.2881 23.7408 24.8903 23.8006 24.8128C23.8535 24.7453 23.8698 24.7329 23.9413 24.6864C24.0412 24.6211 24.3823 24.397 24.7261 24.1695L24.9808 24.0008C25.1873 23.8637 25.3716 23.7405 25.4755 23.6692C25.5267 23.6343 25.5594 23.6095 25.6239 23.5614C26.3723 22.9985 27.5537 22.0061 28.2578 21.3912C28.4171 21.2524 28.5524 21.0912 28.6635 20.9113C28.8912 20.5438 29.1399 20.1453 29.293 19.9243C29.4236 19.7328 29.6466 19.5986 29.9249 19.5738V19.5739Z" fill="white"/>
<path fill-rule="evenodd" clip-rule="evenodd" d="M31.8156 23.335C31.905 23.3342 31.9609 23.4303 31.9166 23.5071L30.0312 26.7457C29.9262 26.9364 29.7506 27.0783 29.5423 27.1411L26.0069 28.2444C25.5965 28.3685 25.2499 28.4351 24.8224 28.4677C24.0382 28.5266 21.709 28.5995 21.709 28.5995L21.7603 28.4894C21.7844 28.4375 21.8271 28.3964 21.88 28.3739L22.982 27.9071C23.0644 27.8723 23.1367 27.8188 23.1919 27.7497L24.8939 25.6594C24.9848 25.5478 25.1038 25.4408 25.2304 25.3741C26.355 24.7841 28.3547 23.8979 29.7552 23.4311C29.8874 23.3869 30.0653 23.359 30.2045 23.3575L31.8156 23.335Z" fill="white"/>
<path fill-rule="evenodd" clip-rule="evenodd" d="M23.0167 29.1534C23.0905 29.1472 23.1605 29.1883 23.1892 29.2558C23.2864 29.4814 23.2599 29.7334 23.1659 29.9489C23.1294 30.0366 23.0167 30.1218 22.9242 30.142L22.1509 30.3134C22.1042 30.3234 22.0615 30.2862 22.0646 30.2389L22.1369 29.3333C22.1423 29.2721 22.1905 29.2232 22.2519 29.2186L23.0167 29.1534Z" fill="white"/>
<path fill-rule="evenodd" clip-rule="evenodd" d="M40.1656 25.3297C40.2814 25.3095 40.4003 25.3258 40.5068 25.3762L41.3143 25.7616C41.3936 25.7996 41.4519 25.8717 41.4729 25.9585C41.5825 26.4191 41.7169 27.0292 41.8071 27.5479C41.8436 27.7635 41.8032 27.9837 41.6936 28.1736C41.3594 28.7528 40.6731 29.7949 40.2892 30.3547C40.2037 30.4803 40.1936 30.6322 40.22 30.7819C40.3941 31.7418 41.12 35.0935 41.12 35.0935L40.663 34.6787C40.5721 34.595 40.5123 34.5066 40.4734 34.3911C40.1485 33.4428 39.5408 31.4619 39.261 30.4981C39.2159 30.3392 39.2501 30.1694 39.355 30.043C39.8314 29.4661 40.5255 28.5435 40.9312 27.9589C41.0446 27.7945 41.0819 27.6131 41.0151 27.4774C40.9218 27.2867 40.7649 26.9967 40.6141 26.7338C40.5737 26.661 40.506 26.6067 40.426 26.5803L39.8781 26.4051C39.7825 26.3749 39.6799 26.3764 39.5851 26.4105C38.3913 26.8424 36.7856 27.465 35.8033 27.8713C35.6595 27.931 35.6004 27.9356 35.4263 27.9093C35.1419 27.8674 34.3134 27.7193 33.9069 27.6433C33.8339 27.6294 33.7973 27.5472 33.8346 27.4828L34.3165 26.6501C34.3818 26.5377 34.4898 26.4578 34.6173 26.4291C36.167 26.0771 38.2164 25.6724 40.1656 25.3297V25.3297Z" fill="white"/>
<path fill-rule="evenodd" clip-rule="evenodd" d="M23.3151 26.2026L22.998 26.5919C22.9802 26.6089 22.9631 26.6252 22.9452 26.643C22.6662 26.8485 21.4918 27.7456 21.174 27.9968C21.0838 28.0681 21.0481 28.1301 21.0271 28.2426C20.9556 28.6395 20.8367 29.3939 20.8017 29.8118C20.7916 29.9343 20.7387 29.9948 20.6136 30.0452C20.0688 30.2662 19.4229 30.4988 18.9007 30.7074C18.7888 30.7516 18.7577 30.7686 18.6916 30.819C18.6395 30.8593 17.9455 31.4773 17.9455 31.4773C17.9455 31.4773 19.454 31.1067 20.0074 30.9818C20.1395 30.9524 20.1963 30.9601 20.3183 31.0175C20.4325 31.0702 20.6229 31.1454 20.7232 31.1819C20.8771 31.2385 20.9587 31.2361 21.1289 31.1989C21.7522 31.0601 22.8006 30.812 23.3586 30.667C23.6485 30.5918 23.8071 30.5135 24.0527 30.3422C24.32 30.1569 24.997 29.6506 24.997 29.6506C24.997 29.6506 24.9845 29.7397 24.9752 29.7894C24.9682 29.832 24.9527 29.856 24.9247 29.8894C24.7871 30.0545 24.5462 30.3236 24.4265 30.4469C24.1522 30.7299 23.9882 30.8306 23.6439 30.9741C22.0584 31.6331 19.3491 32.6566 17.3168 33.3582C17.1839 33.4048 17.1263 33.4428 17.0276 33.5436C16.9204 33.6521 16.7774 33.8103 16.7774 33.8103C16.7774 33.8103 18.4344 33.9304 18.9403 33.9886C19.1043 34.0072 19.2217 34.0607 19.3468 34.1685C19.7626 34.5251 21.139 35.9386 21.5509 36.4294C21.5509 36.4294 17.6377 37.0783 15.8246 37.5272C15.6007 37.5823 15.4888 37.7242 15.4383 37.9033C15.2883 38.429 14.9347 40.1192 14.9347 40.1192C14.9347 40.1192 14.8088 40.0789 14.6331 39.9781C14.5127 39.9091 14.4513 39.8517 14.3191 39.7121C13.8901 39.2601 13.1852 38.3948 12.8464 37.8932C12.7469 37.7451 12.7049 37.5567 12.8293 37.4055C13.1969 36.9543 13.9352 36.1309 14.3424 35.7075C14.386 35.6618 14.4412 35.5819 14.4994 35.4672C14.6365 35.1957 14.8171 34.508 14.88 34.2597L14.9001 34.1794L14.9028 34.1685C14.9028 34.1685 14.8989 34.1709 14.8919 34.1753L14.8175 34.222C14.7167 34.2852 14.5538 34.3874 14.4839 34.4313C14.379 34.498 14.3502 34.5267 14.3067 34.6182C14.2406 34.7562 14.1248 34.974 14.037 35.1252C14.0082 35.1749 13.9313 35.2516 13.8901 35.2834C13.3702 35.6796 12.7958 36.1053 12.387 36.3921C12.359 36.4115 12.3233 36.403 12.2992 36.3797C12.2471 36.3278 12.0287 36.0805 11.9899 36.0223C11.9572 35.9735 11.9424 35.9277 11.9424 35.8688C11.9417 35.7657 11.9518 35.5842 11.9619 35.4493C11.9743 35.2896 12.0202 35.2136 12.2153 35.012C12.4336 34.7864 12.6715 34.5492 12.9217 34.3057C13.5349 33.7909 15.0831 32.5379 17.8476 30.5701C17.8996 30.5329 17.947 30.4895 17.9851 30.4375C18.2758 30.0468 19.1004 28.9799 19.304 28.7264C19.3328 28.6907 19.3646 28.6574 19.4012 28.6287C19.7268 28.372 19.8877 28.2612 20.218 28.0534C20.9882 27.5696 22.4796 26.6872 23.3151 26.2026L23.3151 26.2026Z" fill="white"/>
<path fill-rule="evenodd" clip-rule="evenodd" d="M17.0655 39.498L16.7243 41.8465L15.564 40.4882C15.7754 40.0315 16.3932 39.6004 17.0655 39.498Z" fill="white"/>
<path fill-rule="evenodd" clip-rule="evenodd" d="M24.7067 40.7441C24.1284 41.6932 23.4375 42.7011 22.9152 43.3307C22.8468 43.4129 22.7559 43.4764 22.6525 43.5152C22.0813 43.7284 21.1292 44.0494 20.4282 44.2626L24.7067 40.7441Z" fill="white"/>
<path fill-rule="evenodd" clip-rule="evenodd" d="M49.375 25.497C49.6812 25.3846 50.0169 25.3923 50.3177 25.5187C52.6508 26.4956 56.5741 28.7937 58.7549 30.4127C58.9655 30.5693 59.0495 30.677 59.1046 30.9298C59.6168 33.2527 59.8111 36.8433 59.4886 39.8664C59.4653 40.0835 59.4217 40.2137 59.3083 40.4455C57.9264 43.2639 56.3713 45.9163 54.7345 47.9624L54.7378 47.929C54.7591 47.7111 54.8766 46.4825 54.8829 45.8179C54.8836 45.7426 54.9187 45.6736 54.9785 45.6279C55.2824 45.3922 55.6997 45.0572 55.936 44.8533C56.051 44.7541 56.1148 44.6797 56.1746 44.5835C56.8414 43.5089 58.0336 41.2589 58.5139 39.9051C58.6313 39.5748 58.6779 39.2251 58.6492 38.8755C58.4953 36.9891 58.1984 34.3754 57.7562 32.6697C57.6808 32.3789 57.4881 32.1331 57.2199 31.9959C56.8383 31.8005 56.0899 31.4601 54.3855 30.7786C54.1492 30.684 53.9285 30.553 53.7342 30.3902C52.6166 29.4536 50.8695 28.0494 49.7822 27.2415C49.4643 27.005 49.0586 26.919 48.6716 27.0066C47.8796 27.1857 46.8716 27.4354 46.3043 27.5889C46.1115 27.6408 46.0354 27.6455 45.8364 27.6222C45.7328 27.6102 45.5989 27.5971 45.4582 27.5844L45.245 27.5657C44.9973 27.5446 44.7649 27.5267 44.6738 27.5198L44.6333 27.5168C46.4822 26.6507 48.2612 25.9033 49.3749 25.497L49.375 25.497Z" fill="white"/>
<path fill-rule="evenodd" clip-rule="evenodd" d="M21.8479 37.4134C22.0313 37.3545 22.2264 37.3475 22.4129 37.3925C23.2538 37.5941 25.0336 38.029 26.3789 38.3725C26.5678 38.4206 26.8033 38.5966 26.9035 38.7633L27.1965 39.2494C27.2991 39.42 27.3061 39.6293 27.2152 39.8061C26.9706 40.279 26.6218 40.9193 26.2531 41.5796L25.9741 42.0762C25.4607 42.985 24.9493 43.8619 24.659 44.3232C24.4678 44.6279 24.3613 44.7628 24.0209 44.883C22.6974 45.3475 21.0536 45.9026 20.0767 46.2182C19.8769 46.2825 19.8093 46.4035 19.8482 46.6244C19.9181 47.0268 20.1435 48.393 20.2298 48.7915C20.2616 48.9388 20.3798 49.0559 20.5989 49.014C21.1764 48.9047 22.7137 48.5294 22.7137 48.5294C22.7137 48.5294 22.2606 48.9474 21.9893 49.1939C21.9396 49.2404 21.8821 49.2745 21.8176 49.2955C21.3987 49.435 20.3759 49.7211 20.0572 49.7909C19.8085 49.8444 19.65 49.7467 19.5863 49.4661C19.5863 49.4661 19.1503 47.6145 18.9925 46.985C18.9676 46.8888 18.9427 46.8059 18.9124 46.7113C18.7943 46.3469 18.5106 45.6305 18.3505 45.2552C18.3319 45.2118 18.3225 45.1652 18.3233 45.1172C18.328 44.6884 18.4073 43.7317 18.4073 43.7317C18.4073 43.7317 19.3484 44.6117 19.8039 44.9295C19.9065 45.0017 19.9679 45.0164 20.0938 44.9846C20.7194 44.8241 22.158 44.3496 22.9476 44.055C23.1279 43.9875 23.2857 43.8743 23.4085 43.7262C24.2253 42.7423 25.2497 41.2118 25.8411 40.0573C25.9227 39.8984 25.9383 39.7162 25.887 39.5456L25.7595 39.1269C25.7222 39.0044 25.5924 38.8664 25.4727 38.8207C24.0808 38.2926 22.9834 37.9003 21.694 37.4623L21.8479 37.4134Z" fill="white"/>
<path fill-rule="evenodd" clip-rule="evenodd" d="M46.7894 32.6777L47.2704 32.8863C47.4127 32.9476 47.5425 33.0375 47.6497 33.1491C50.5991 36.2195 52.9579 39.403 53.4305 40.2419C53.5214 40.4032 53.5836 40.5645 53.6061 40.749C54.1361 45.2266 53.6807 49.9701 52.5981 54.0965C52.5002 54.4686 52.3906 54.6594 52.0315 54.9284C50.8757 55.7956 49.1503 57.1783 47.4345 58.588L46.8936 59.0335C44.8267 60.7404 42.8631 62.4115 42.0298 63.1803C41.8208 63.3742 41.6381 63.5928 41.4889 63.8355C41.0982 64.469 40.5016 65.5591 40.2086 66.1002L40.1268 66.2516C40.068 66.3607 40.034 66.4244 40.034 66.4244C39.6454 65.5785 38.7983 63.5145 38.5076 62.6802C38.4128 62.4081 38.3957 62.2654 38.4959 61.901C38.97 60.1712 41.2107 55.1424 41.6467 54.2329L41.6474 54.6051C41.6474 54.6594 41.6389 54.7129 41.6218 54.764C41.4251 55.3587 40.2205 59.3223 39.9757 61.0412C39.9213 61.4234 39.9259 61.5265 39.9757 61.9018C40.0829 62.7043 40.564 64.1759 40.564 64.1759C40.564 64.1759 40.8492 63.582 41.115 63.1803C41.2456 62.9834 41.3241 62.8888 41.537 62.6779C42.6143 61.6152 44.4519 59.9726 46.3661 58.3209L47.0437 57.7384C48.514 56.4797 49.9819 55.2548 51.1416 54.319C51.4431 54.0755 51.5558 53.9127 51.6227 53.4506C51.9553 51.1742 52.0517 47.0882 51.8511 44.1148C51.8131 43.5534 51.6304 43.0107 51.3133 42.5447C50.5859 41.4724 49.7162 40.4575 48.3973 39.1541C48.2092 38.9673 48.081 38.7285 48.0328 38.468C47.6481 36.4211 46.7893 32.6777 46.7893 32.6777H46.7894Z" fill="white"/>
<path fill-rule="evenodd" clip-rule="evenodd" d="M31.2605 34.168C31.2605 34.168 31.5285 35.0339 31.787 35.9742L31.8773 36.3079C32.0406 36.9207 32.1862 37.5255 32.239 37.9082C32.2895 38.2765 32.2809 38.3757 32.1496 38.7285C31.8311 39.5735 31.245 40.9328 30.6198 42.3224L30.3501 42.9183C29.583 44.6042 28.8063 46.2328 28.4292 46.9378C28.2434 47.2852 28.0685 47.5115 27.7188 47.8659C26.9206 48.6761 25.3927 50.2074 24.4468 51.0642C24.1033 51.3758 24.0108 51.6418 23.9409 52.045C23.8282 52.6924 23.7163 53.7972 23.6852 54.3679C23.658 54.8695 23.7396 55.1044 24.0202 55.6014C25.6872 58.5671 31.2527 65.3901 32.8382 66.8229C32.9532 66.9268 33.0371 66.9966 33.2796 67.1571C33.5128 67.3122 34.2729 67.8037 34.2729 67.8037C34.3032 67.8246 34.3288 67.8526 34.3483 67.8844L34.6234 68.3674C34.6234 68.3674 34.5977 68.3547 34.5513 68.3317L34.4325 68.2728C34.3369 68.2254 34.2106 68.1626 34.0654 68.0903L33.7121 67.9139C33.1705 67.6429 32.5248 67.3168 32.1853 67.1346C32.0454 67.0594 31.9141 66.971 31.7921 66.8694C29.9354 65.3312 24.2455 58.6904 22.5722 55.9178C22.1549 55.2254 22.1121 55.0013 22.1681 54.3462C22.273 53.1266 22.4355 51.5929 22.5777 50.9207C22.664 50.5152 22.7533 50.2772 23.065 49.919C24.1123 48.7166 25.3897 47.1293 26.6345 45.5005L27.0721 44.9245C28.9585 42.4259 30.6963 39.925 31.3452 38.651C31.4936 38.361 31.5061 38.2602 31.5092 37.9865C31.5177 37.1926 31.2636 35.6465 31.1967 35.2558C31.1866 35.1945 31.1835 35.1325 31.1889 35.0705L31.2605 34.168Z" fill="white"/>
<path fill-rule="evenodd" clip-rule="evenodd" d="M36.3465 43.9951C36.3465 43.9951 36.5611 45.2643 36.6263 45.6326C36.6629 45.8412 36.6706 45.897 36.6178 46.1017C36.4464 46.7599 35.6545 50.2292 35.0205 53.7805L34.9219 54.3416C34.6628 55.8373 34.4391 57.3222 34.3088 58.5924C34.2349 59.3143 34.259 59.4872 34.4502 60.1276C34.9919 61.9372 36.9955 66.6652 37.3802 67.5274C37.423 67.6228 37.4486 67.7228 37.461 67.8259L37.6056 68.9409C36.9636 67.974 33.4756 61.5798 32.1054 58.0388C31.9438 57.6217 31.9127 57.4162 32.0914 56.6494C33.0443 52.5812 35.6222 45.6683 36.3466 43.9951H36.3465Z" fill="white"/>
</g>
<defs>
<clipPath id="clip0_358_1765">
<rect width="72.8821" height="79.9902" fill="white" transform="translate(0 0.806641)"/>
</clipPath>
</defs>
</svg>
