<svg width="69" height="63" viewBox="0 0 69 63" fill="none" xmlns="http://www.w3.org/2000/svg">
<path fill-rule="evenodd" clip-rule="evenodd" d="M66.831 59.1373C60.8233 53.9862 42.9745 39.3287 34.5014 39.3287C26.0246 39.3287 8.18952 53.9763 2.17808 59.1311C2.14197 57.9133 2.10835 57.1737 2.10835 56.0892C2.10835 56.0892 1.96143 54.2987 3.54523 52.507C16.5767 40.6995 30.2394 34.9222 30.659 34.7454C34.733 33.0234 34.5039 33.3471 34.5002 26.4367C34.5002 26.4367 34.682 26.4255 34.7977 26.4379C40.5353 26.9571 55.9611 41.9285 65.0903 52.0501C65.1065 52.0675 66.892 54.1344 66.892 56.3133C66.8945 57.3343 66.8646 58.3416 66.831 59.1373ZM66.5857 50.6879C65.6157 49.6121 42.7715 24.3959 34.5014 24.3959C26.2338 24.3959 3.38834 49.6121 2.41963 50.6866L2.41839 50.6879C2.32376 50.7937 0.09375 53.3425 0.09375 56.3146C0.09375 58.628 0.2469 60.9564 0.24939 60.9788C0.254371 61.0859 0.30791 62.0695 0.854518 62.3372C0.942922 62.3808 1.0388 62.4032 1.13716 62.4032C1.34012 62.4032 1.56673 62.3123 1.81202 62.133C2.05855 61.9151 25.3311 41.3594 34.5014 41.3594C43.673 41.3594 66.9468 61.9151 67.1796 62.1231C67.4336 62.3098 67.6627 62.4032 67.8682 62.4032C67.9678 62.4032 68.0611 62.3808 68.1508 62.3385C68.6962 62.072 68.7497 61.0871 68.7547 60.9763C68.7559 60.9589 68.9091 58.6305 68.9091 56.3171C68.9091 53.3425 66.6791 50.7937 66.5857 50.6879ZM66.7986 35.1538C60.7971 30.0089 42.9657 15.3663 34.5027 15.3663C26.0346 15.3663 8.21692 30.0002 2.2117 35.1488C2.17559 33.9335 2.14197 33.1927 2.14197 32.1107C2.14197 32.1107 1.99505 30.3215 3.5776 28.5322C16.5966 16.7359 30.2456 10.9648 30.6639 10.788C34.7342 9.06724 34.5051 9.39097 34.5014 2.48802C34.5014 2.48802 34.682 2.47681 34.799 2.48926C40.5303 3.00848 55.9411 17.9649 65.0604 28.0753C65.0766 28.0927 66.8609 30.1571 66.8609 32.3348C66.8621 33.3533 66.831 34.3594 66.7986 35.1538ZM66.5533 26.7131C65.5834 25.6385 42.7628 0.447266 34.5014 0.447266C26.2425 0.447266 3.41947 25.6385 2.45201 26.7118L2.45076 26.7131C2.35613 26.8189 0.127369 29.3652 0.127369 32.3348C0.127369 34.6458 0.281764 36.9716 0.283009 36.9941C0.28799 37.1011 0.34153 38.0835 0.886893 38.3512C0.975296 38.3948 1.07117 38.416 1.16953 38.416C1.37249 38.416 1.59786 38.3251 1.84315 38.1458C2.09092 37.9279 25.3398 17.3934 34.5014 17.3934C43.6643 17.3934 66.9144 37.9279 67.1472 38.1358C67.4 38.3226 67.6291 38.4147 67.8345 38.4147C67.9342 38.4147 68.0275 38.3936 68.1172 38.35C68.6613 38.0835 68.7161 37.0999 68.7198 36.9891C68.7211 36.9716 68.8742 34.6458 68.8742 32.3348C68.8755 29.3652 66.6479 26.8189 66.5533 26.7131Z" fill="#6E6E6E"/>
</svg>
