<svg width="32" height="30" viewBox="0 0 32 30" fill="none" xmlns="http://www.w3.org/2000/svg">
<path d="M11.4177 0.914706C13.4917 0.206883 15.675 -0.094602 17.8556 0.0258261C18.0845 0.0147664 18.3127 0.0553222 18.5251 0.144619C20.9184 2.11202 22.8125 4.65247 24.0438 7.54643C25.3777 10.8857 25.8702 14.5206 25.474 18.1105C25.2299 20.7219 24.6258 23.2832 23.6793 25.7172H25.3829C25.5493 25.2707 25.6998 24.8201 25.8741 24.3777C27.8574 24.6382 29.6972 25.5836 31.0957 27.0607C29.7024 28.5476 27.8578 29.4947 25.8702 29.7437C25.7077 29.3054 25.5453 28.8712 25.3948 28.4329C20.1732 28.4329 14.9476 28.4329 9.72607 28.4329C9.46459 28.451 9.21343 28.5448 9.00108 28.7033C8.42662 29.0023 7.86009 29.3136 7.28564 29.6126C7.07527 29.713 6.84312 29.7552 6.61215 29.7355C5.93865 29.7355 5.26515 29.7355 4.58769 29.7355C3.16582 28.1679 2.01494 26.3599 1.18456 24.39H5.79998C6.12841 24.3552 6.4604 24.3912 6.77457 24.4965C7.54037 24.8377 8.30658 25.1834 9.07238 25.5328C9.6508 25.8851 10.3441 25.6762 10.9819 25.7295C10.8841 24.0369 10.4111 22.3898 9.59929 20.9164C8.73642 19.4918 7.53483 18.3198 6.109 17.5125C4.19785 16.4499 2.13617 15.7073 0 15.3128C0.284849 12.9788 1.02609 10.7296 2.17896 8.70156C3.68204 9.05507 5.16016 9.5122 6.60422 10.0697C8.15326 10.6399 9.6195 11.4268 10.9621 12.4086L11.394 12.1915C10.5263 11.1904 9.54897 10.297 8.48208 9.529C6.96433 8.38453 5.37647 7.34327 3.72799 6.41179C5.11341 4.66149 6.81578 3.20776 8.7396 2.13128C10.0561 2.68672 11.2866 3.43918 12.3923 4.3637C14.0733 5.75804 15.6334 7.30149 17.0553 8.97602L17.6099 8.82446C16.1837 5.73593 13.9136 3.13894 11.4177 0.914706ZM19.1352 19.45C18.0303 19.8137 17.4194 21.0344 17.7712 22.1772C18.123 23.3197 19.3036 23.9513 20.4089 23.5876C21.5138 23.2238 22.1243 22.0027 21.7729 20.8603C21.641 20.4323 21.3839 20.0566 21.0368 19.7859C20.4925 19.3627 19.7845 19.2378 19.1352 19.45Z" fill="#0D392E"/>
</svg>
