<svg width="165" height="83" viewBox="0 0 165 83" fill="none" xmlns="http://www.w3.org/2000/svg">
<path d="M34.1459 27.5523L30.68 20.1391C30.487 19.7251 29.8985 19.7251 29.7054 20.1391L21.0268 38.6966C20.1825 40.5039 20.1825 42.5904 21.0268 44.3978L23.9298 50.6061C24.1228 51.0201 24.7113 51.0201 24.9044 50.6061L34.1459 30.8461C34.6344 29.804 34.6344 28.5968 34.1459 27.5523Z" fill="black"/>
<path d="M35.479 32.4883L26.2375 52.2483C25.749 53.2927 25.749 54.4999 26.2375 55.542L29.7033 62.9552C29.8964 63.3693 30.4849 63.3693 30.6779 62.9552L39.3565 44.3978C40.2009 42.5904 40.2009 40.5039 39.3565 38.6966L36.4536 32.4883C36.2605 32.0742 35.672 32.0742 35.479 32.4883Z" fill="black"/>
<path d="M121.169 48.7871L113.144 34.3096L105.119 48.7871H108.687L113.144 40.6318L117.7 48.7871H121.169Z" fill="black"/>
<path d="M87.334 34.3096L95.3589 48.7871L103.384 34.3096H99.8157L95.3589 42.4648L90.8022 34.3096H87.334Z" fill="black"/>
<path d="M80.0023 34.3096H76.897V48.7871H80.0023V34.3096Z" fill="black"/>
<path d="M57.3407 40.8179H54.2354V48.787H70.3551V45.8934L57.3407 45.8957V40.8179Z" fill="black"/>
<path d="M132.452 34.3096H131.966H128.828V48.7871H131.966V38.436L141.317 48.7871H141.908H145.046L132.452 34.3096Z" fill="black"/>
<path d="M55.7893 37.4126C56.6462 37.4126 57.3408 36.7179 57.3408 35.8611C57.3408 35.0042 56.6462 34.3096 55.7893 34.3096C54.9324 34.3096 54.2378 35.0042 54.2378 35.8611C54.2378 36.7179 54.9324 37.4126 55.7893 37.4126Z" fill="black"/>
<path d="M143.495 37.4126C144.352 37.4126 145.046 36.7179 145.046 35.8611C145.046 35.0042 144.352 34.3096 143.495 34.3096C142.638 34.3096 141.943 35.0042 141.943 35.8611C141.943 36.7179 142.638 37.4126 143.495 37.4126Z" fill="black"/>
</svg>
