<svg width="203" height="182" viewBox="0 0 203 182" fill="none" xmlns="http://www.w3.org/2000/svg">
<path d="M131.751 0.246094C137.317 0.246094 141.835 4.76362 141.835 10.3299V30.4974L192.254 30.4974C197.82 30.4974 202.337 35.0149 202.337 40.5812V171.67C202.337 177.236 197.82 181.754 192.254 181.754H10.7459C5.17964 181.754 0.662109 177.236 0.662109 171.67L0.662109 40.5812C0.662109 35.0149 5.17964 30.4974 10.7459 30.4974L61.1647 30.4974V10.3299C61.1647 4.76362 65.6822 0.246094 71.2485 0.246094L131.751 0.246094ZM141.835 50.6649L61.1647 50.6649L61.1647 161.586H141.835V50.6649ZM20.8296 50.6649L20.8296 161.586H40.9972L40.9972 50.6649H20.8296ZM121.667 20.4136L81.3323 20.4136V30.4974L121.667 30.4974V20.4136ZM162.002 50.6649V161.586H182.17V50.6649H162.002Z" fill="#FF0000"/>
</svg>
