<svg width="141" height="128" viewBox="0 0 141 128" fill="none" xmlns="http://www.w3.org/2000/svg">
<path d="M53.9545 46.274H13.2273C9.8518 46.274 6.61456 47.5987 4.22774 49.9566C1.84091 52.3146 0.500007 55.5126 0.500007 58.8472V72.0743C0.498291 73.7174 0.822586 75.3448 1.45455 76.8647L21.1564 124.102C21.6354 125.254 22.4501 126.24 23.4969 126.934C24.5438 127.628 25.7757 127.999 27.0364 128H134.136C135.824 128 137.443 127.338 138.636 126.159C139.83 124.98 140.5 123.381 140.5 121.713V58.8472C140.5 57.1799 139.83 55.5809 138.636 54.4019C137.443 53.223 135.824 52.5606 134.136 52.5606H111.978C110.959 52.5609 109.955 52.3195 109.051 51.8567C108.146 51.394 107.367 50.7234 106.779 49.9014L72.0782 1.33099C71.6395 0.716873 70.9926 0.278366 70.2548 0.094986C69.5169 -0.0883942 68.737 -0.0045166 68.0564 0.331421L56.5127 6.03967C53.2641 7.64378 50.6688 10.2977 49.1581 13.5604C47.6474 16.8232 47.3122 20.4984 48.2082 23.9754L53.9545 46.274ZM102.318 62.5438V115.427H31.3L13.2273 72.0743V58.8472H53.9545C55.8929 58.847 57.8056 58.4093 59.5467 57.5676C61.2878 56.726 62.8113 55.5026 64.001 53.9907C65.1906 52.4789 66.015 50.7186 66.4113 48.8441C66.8075 46.9697 66.7651 45.0305 66.2873 43.1747L60.5409 20.8698C60.3611 20.174 60.4278 19.4384 60.73 18.7853C61.0321 18.1322 61.5516 17.6011 62.2018 17.2801L66.4082 15.2056L96.3809 57.1498C97.9718 59.3753 100.008 61.1984 102.318 62.5438ZM115.045 65.1339H127.773V115.427H115.045V65.1339Z" fill="#FF0000"/>
</svg>
