<svg width="155" height="152" viewBox="0 0 155 152" fill="none" xmlns="http://www.w3.org/2000/svg">
<path d="M77.5 152C34.9729 152 0.5 117.975 0.5 76C0.5 34.0252 34.9729 0 77.5 0C120.027 0 154.5 34.0252 154.5 76C154.5 117.975 120.027 152 77.5 152ZM77.5 136.8C93.8373 136.8 109.506 130.394 121.058 118.992C132.61 107.59 139.1 92.1252 139.1 76C139.1 59.8748 132.61 44.4101 121.058 33.0079C109.506 21.6057 93.8373 15.2 77.5 15.2C61.1627 15.2 45.4945 21.6057 33.9422 33.0079C22.39 44.4101 15.9 59.8748 15.9 76C15.9 92.1252 22.39 107.59 33.9422 118.992C45.4945 130.394 61.1627 136.8 77.5 136.8ZM69.8231 106.4L37.152 74.1532L48.0398 63.4068L69.8231 84.9072L113.374 41.914L124.27 52.6604L69.8231 106.4Z" fill="#FF0000"/>
</svg>
