<svg width="137" height="178" viewBox="0 0 137 178" fill="none" xmlns="http://www.w3.org/2000/svg">
<path d="M0.5 178C0.5 160.016 7.66427 142.768 20.4167 130.051C33.1692 117.335 50.4653 110.19 68.5 110.19C86.5347 110.19 103.831 117.335 116.583 130.051C129.336 142.768 136.5 160.016 136.5 178H119.5C119.5 164.512 114.127 151.576 104.562 142.039C94.9981 132.501 82.026 127.143 68.5 127.143C54.974 127.143 42.0019 132.501 32.4376 142.039C22.8732 151.576 17.5 164.512 17.5 178H0.5ZM68.5 101.714C40.3225 101.714 17.5 78.9557 17.5 50.8571C17.5 22.7586 40.3225 0 68.5 0C96.6775 0 119.5 22.7586 119.5 50.8571C119.5 78.9557 96.6775 101.714 68.5 101.714ZM68.5 84.7619C87.285 84.7619 102.5 69.5895 102.5 50.8571C102.5 32.1248 87.285 16.9524 68.5 16.9524C49.715 16.9524 34.5 32.1248 34.5 50.8571C34.5 69.5895 49.715 84.7619 68.5 84.7619Z" fill="#FF0000"/>
</svg>
