<svg width="189" height="188" viewBox="0 0 189 188" fill="none" xmlns="http://www.w3.org/2000/svg">
<path d="M94.5 188C42.3077 188 0 145.916 0 94C0 42.0838 42.3077 0 94.5 0C146.692 0 189 42.0838 189 94C189 145.916 146.692 188 94.5 188ZM94.5 169.2C114.55 169.2 133.78 161.277 147.957 147.174C162.135 133.072 170.1 113.944 170.1 94C170.1 74.0557 162.135 54.9283 147.957 40.8256C133.78 26.7228 114.55 18.8 94.5 18.8C74.4496 18.8 55.2205 26.7228 41.0427 40.8256C26.865 54.9283 18.9 74.0557 18.9 94C18.9 113.944 26.865 133.072 41.0427 147.174C55.2205 161.277 74.4496 169.2 94.5 169.2ZM61.425 112.8H113.4C114.653 112.8 115.855 112.305 116.741 111.423C117.627 110.542 118.125 109.347 118.125 108.1C118.125 106.853 117.627 105.658 116.741 104.777C115.855 103.895 114.653 103.4 113.4 103.4H75.6C69.3343 103.4 63.3251 100.924 58.8946 96.517C54.4641 92.1099 51.975 86.1326 51.975 79.9C51.975 73.6674 54.4641 67.6901 58.8946 63.283C63.3251 58.8759 69.3343 56.4 75.6 56.4H85.05V37.6H103.95V56.4H127.575V75.2H75.6C74.3469 75.2 73.145 75.6952 72.2589 76.5766C71.3728 77.458 70.875 78.6535 70.875 79.9C70.875 81.1465 71.3728 82.342 72.2589 83.2234C73.145 84.1048 74.3469 84.6 75.6 84.6H113.4C119.666 84.6 125.675 87.0759 130.105 91.483C134.536 95.8901 137.025 101.867 137.025 108.1C137.025 114.333 134.536 120.31 130.105 124.717C125.675 129.124 119.666 131.6 113.4 131.6H103.95V150.4H85.05V131.6H61.425V112.8Z" fill="#FF0000"/>
</svg>
