<svg width="167" height="152" viewBox="0 0 167 152" fill="none" xmlns="http://www.w3.org/2000/svg">
<path d="M120.85 0C146.065 0 166.5 20.5405 166.5 49.2973C166.5 106.811 104.25 139.676 83.5 152C62.75 139.676 0.5 106.811 0.5 49.2973C0.5 20.5405 21.25 0 46.15 0C61.588 0 75.2 8.21622 83.5 16.4324C91.8 8.21622 105.412 0 120.85 0ZM91.2522 128.206C98.5645 123.638 105.163 119.094 111.338 114.23C136.081 94.7576 149.9 73.4776 149.9 49.2973C149.9 29.907 137.143 16.4324 120.85 16.4324C111.919 16.4324 102.258 21.1157 95.2362 28.0502L83.5 39.6679L71.7638 28.0502C64.742 21.1157 55.0808 16.4324 46.15 16.4324C30.048 16.4324 17.1 30.0385 17.1 49.2973C17.1 73.4858 30.9278 94.7576 55.6535 114.23C61.837 119.094 68.4355 123.638 75.7478 128.198C78.2295 129.75 80.6863 131.238 83.5 132.897C86.3137 131.238 88.7705 129.75 91.2522 128.206Z" fill="#FF0000"/>
</svg>
