<svg width="32" height="32" viewBox="0 0 32 32" fill="none" xmlns="http://www.w3.org/2000/svg">
<path d="M16 30.3334C8.09329 30.3334 1.66663 23.9067 1.66663 16C1.66663 8.09335 8.09329 1.66669 16 1.66669C23.9066 1.66669 30.3333 8.09335 30.3333 16C30.3333 23.9067 23.9066 30.3334 16 30.3334ZM16 3.66669C9.19996 3.66669 3.66663 9.20002 3.66663 16C3.66663 22.8 9.19996 28.3334 16 28.3334C22.8 28.3334 28.3333 22.8 28.3333 16C28.3333 9.20002 22.8 3.66669 16 3.66669Z" fill="#393A3C"/>
<path d="M12.2266 20.7733C11.9733 20.7733 11.72 20.68 11.52 20.48C11.1333 20.0933 11.1333 19.4533 11.52 19.0666L19.0666 11.52C19.4533 11.1333 20.0933 11.1333 20.48 11.52C20.8666 11.9066 20.8666 12.5466 20.48 12.9333L12.9333 20.48C12.7466 20.68 12.48 20.7733 12.2266 20.7733Z" fill="#393A3C"/>
<path d="M19.7733 20.7733C19.52 20.7733 19.2666 20.68 19.0666 20.48L11.52 12.9333C11.1333 12.5466 11.1333 11.9066 11.52 11.52C11.9066 11.1333 12.5466 11.1333 12.9333 11.52L20.48 19.0666C20.8666 19.4533 20.8666 20.0933 20.48 20.48C20.28 20.68 20.0266 20.7733 19.7733 20.7733Z" fill="#393A3C"/>
</svg>
