<svg width="29" height="27" viewBox="0 0 29 27" fill="none" xmlns="http://www.w3.org/2000/svg">
<path d="M13.504 24.9771C19.587 24.9771 24.5182 19.9448 24.5182 13.7372C24.5182 7.52951 19.587 2.49719 13.504 2.49719C7.42099 2.49719 2.4897 7.52951 2.4897 13.7372C2.4897 19.9448 7.42099 24.9771 13.504 24.9771Z" stroke="#F90000" stroke-width="3"/>
<path d="M19.0116 10.5811C19.0116 13.7049 19.0116 16.8095 19.0116 19.914C18.9927 19.9289 18.974 19.9438 18.9552 19.9586C18.938 19.9197 18.9273 19.8753 18.9027 19.8428C18.2239 18.9439 17.5403 18.0489 16.8682 17.1444C16.7937 17.0443 16.7492 16.8907 16.7486 16.7615C16.7378 14.5809 16.7363 12.4001 16.7327 10.2194C16.7325 10.1111 16.7327 10.0027 16.7327 9.85911C16.608 9.85911 16.4955 9.85888 16.3829 9.85911C16.0305 9.85984 15.6782 9.86164 15.3258 9.86113C15.1182 9.86085 15.0794 9.8221 15.0789 9.6025C15.0774 8.95275 15.0777 8.30301 15.079 7.65332C15.0795 7.3813 15.1436 7.31492 15.4063 7.31464C16.2326 7.31374 17.0589 7.31447 17.8851 7.31464C18.1524 7.3147 18.4199 7.31155 18.687 7.31593C18.9403 7.31998 19.0089 7.39553 19.0094 7.66693C19.0111 8.6319 19.0109 9.59687 19.0116 10.5811Z" fill="#F90000"/>
<path d="M8.19475 11.0531C8.19475 9.87923 8.19475 8.72464 8.19475 7.57C8.21352 7.55155 8.23223 7.5331 8.25099 7.51465C8.26919 7.55954 8.27903 7.61134 8.30678 7.64835C8.98871 8.55645 9.67528 9.46073 10.3518 10.3732C10.4198 10.465 10.4603 10.6047 10.4607 10.7223C10.4672 12.912 10.4658 15.1017 10.466 17.2914C10.466 17.3743 10.466 17.4573 10.466 17.5575C10.5265 17.5619 10.5788 17.5692 10.6312 17.5692C11.0481 17.57 11.465 17.5723 11.8818 17.5679C12.0527 17.5661 12.1273 17.645 12.1268 17.8225C12.1249 18.5096 12.1283 19.1966 12.1261 19.8837C12.1254 20.0905 12.0592 20.1592 11.8579 20.1594C10.7482 20.1602 9.63849 20.159 8.52883 20.1553C8.28618 20.1545 8.1955 20.0516 8.19441 19.7799C8.19189 19.1249 8.19412 18.4699 8.19418 17.8149C8.19441 15.5674 8.19458 13.3199 8.19475 11.0531Z" fill="#F90000"/>
<path d="M17.2078 12.5321H10.3566V14.74H17.8306L17.2078 12.5321Z" fill="#F90000"/>
</svg>
