<svg width="180" height="42" viewBox="0 0 180 42" fill="none" xmlns="http://www.w3.org/2000/svg">
<path d="M21.5194 38.8533C30.9877 38.8533 38.6634 31.0252 38.6634 21.3689C38.6634 11.7126 30.9877 3.88452 21.5194 3.88452C12.0511 3.88452 4.37549 11.7126 4.37549 21.3689C4.37549 31.0252 12.0511 38.8533 21.5194 38.8533Z" stroke="#F90000" stroke-width="3"/>
<path d="M52.1054 17.1642H54.7725V26.7807H52.1054V17.1642ZM48.4684 26.7807H45.8013V17.1642H48.4684V26.7807ZM52.294 23.0302H48.2798V20.7773H52.294V23.0302ZM59.1154 20.8872H63.4932V22.9204H59.1154V20.8872ZM59.304 24.6787H64.2341V26.7807H56.6638V17.1642H64.059V19.2661H59.304V24.6787ZM64.8645 26.0388L65.6592 24.1292C66.0634 24.3399 66.4855 24.5002 66.9254 24.6101C67.3656 24.72 67.7921 24.7841 68.2051 24.8024C68.6183 24.8208 68.9909 24.7933 69.3231 24.72C69.6645 24.6375 69.9339 24.5139 70.1314 24.349C70.3291 24.1842 70.4277 23.969 70.4277 23.7034C70.4277 23.4103 70.3065 23.1997 70.064 23.0715C69.8307 22.9341 69.5209 22.8654 69.1345 22.8654H66.7233V20.8735H68.919C69.2784 20.8735 69.5567 20.8001 69.7541 20.6537C69.9519 20.5071 70.0505 20.3102 70.0505 20.0629C70.0505 19.8248 69.9654 19.637 69.7946 19.4996C69.624 19.3531 69.3951 19.2523 69.1076 19.1974C68.8204 19.1333 68.4971 19.1104 68.1377 19.1287C67.7786 19.1471 67.406 19.2158 67.0197 19.3348C66.6337 19.4447 66.2611 19.5958 65.9016 19.7881L65.1204 17.755C65.7581 17.4344 66.4271 17.2146 67.1275 17.0956C67.8279 16.9765 68.5106 16.949 69.1749 17.0131C69.8395 17.0772 70.4411 17.2283 70.98 17.4665C71.5188 17.6955 71.9455 18.0022 72.2596 18.3869C72.583 18.7715 72.7446 19.2249 72.7446 19.7469C72.7446 20.2049 72.6233 20.6124 72.3809 20.9696C72.1384 21.3268 71.8109 21.6061 71.3976 21.8076C70.9845 22.009 70.5085 22.1098 69.9697 22.1098L70.0371 21.5329C70.6567 21.5329 71.1955 21.6428 71.6535 21.8626C72.1207 22.0824 72.4798 22.3846 72.7311 22.7692C72.9916 23.1448 73.1217 23.5798 73.1217 24.0743C73.1217 24.5414 73.0005 24.9581 72.758 25.3244C72.5247 25.6817 72.1969 25.9839 71.7747 26.2312C71.3529 26.4784 70.868 26.6616 70.3199 26.7807C69.7811 26.9089 69.2019 26.9684 68.5823 26.9593C67.9626 26.9593 67.3341 26.8814 66.6964 26.7257C66.0679 26.57 65.4572 26.3411 64.8645 26.0388ZM73.4863 26.7807L77.6487 17.1642H80.2753L84.4511 26.7807H81.6763L78.4165 18.4968H79.4672L76.2073 26.7807H73.4863ZM75.7628 24.9123L76.4498 22.9066H81.0566L81.7436 24.9123H75.7628ZM85.3971 26.7807V17.1642H89.9768C91.1087 17.1642 91.9841 17.384 92.6039 17.8236C93.2326 18.2541 93.547 18.8677 93.547 19.6645C93.547 20.443 93.2549 21.0566 92.6707 21.5054C92.0874 21.945 91.3064 22.1648 90.3277 22.1648L90.5966 21.5191C91.6563 21.5191 92.4828 21.7343 93.075 22.1648C93.677 22.586 93.978 23.2088 93.978 24.0331C93.978 24.8757 93.6547 25.5443 93.0082 26.0388C92.3697 26.5334 91.4453 26.7807 90.2333 26.7807H85.3971ZM88.0238 24.8299H90.1255C90.5111 24.8299 90.7988 24.7474 90.9876 24.5826C91.1844 24.4086 91.2832 24.1567 91.2832 23.827C91.2832 23.4973 91.1844 23.2547 90.9876 23.0989C90.7988 22.9341 90.5111 22.8517 90.1255 22.8517H88.0238V24.8299ZM88.0238 21.0108H89.7212C90.0979 21.0108 90.3811 20.933 90.5699 20.7773C90.7587 20.6124 90.8522 20.3743 90.8522 20.0629C90.8522 19.7515 90.7587 19.518 90.5699 19.3622C90.3811 19.1974 90.0979 19.115 89.7212 19.115H88.0238V21.0108ZM95.2862 26.7807V17.1642H97.9124V22.8104L101.806 17.1642H104.311V26.7807H101.685V21.1482L97.8047 26.7807H95.2862ZM110.794 26.973C110.049 26.973 109.358 26.8539 108.72 26.6158C108.091 26.3685 107.544 26.0205 107.077 25.5718C106.619 25.123 106.26 24.5963 106 23.9919C105.739 23.3783 105.609 22.7051 105.609 21.9725C105.609 21.2397 105.739 20.5712 106 19.9667C106.26 19.3531 106.619 18.8219 107.077 18.3731C107.544 17.9244 108.091 17.5809 108.72 17.3428C109.358 17.0956 110.049 16.9719 110.794 16.9719C111.666 16.9719 112.443 17.1276 113.125 17.439C113.816 17.7504 114.391 18.1992 114.849 18.7853L113.152 20.3514C112.846 19.9851 112.509 19.7057 112.142 19.5134C111.782 19.321 111.378 19.2249 110.93 19.2249C110.543 19.2249 110.189 19.289 109.865 19.4172C109.542 19.5455 109.263 19.7332 109.03 19.9804C108.806 20.2186 108.626 20.5071 108.491 20.846C108.366 21.1848 108.302 21.5603 108.302 21.9725C108.302 22.3846 108.366 22.76 108.491 23.0989C108.626 23.4378 108.806 23.7309 109.03 23.9781C109.263 24.2163 109.542 24.3995 109.865 24.5276C110.189 24.6559 110.543 24.72 110.93 24.72C111.378 24.72 111.782 24.6238 112.142 24.4315C112.509 24.2391 112.846 23.9599 113.152 23.5935L114.849 25.1596C114.391 25.7366 113.816 26.1853 113.125 26.5059C112.443 26.8172 111.666 26.973 110.794 26.973ZM115.919 26.7807V17.1642H118.546V22.8104L122.439 17.1642H124.944V26.7807H122.318V21.1482L118.438 26.7807H115.919ZM126.835 26.7807V17.1642H129.03L132.923 23.7034H131.765L135.576 17.1642H137.772L137.799 26.7807H135.334L135.321 20.9696H135.738L132.896 25.8328H131.711L128.788 20.9696H129.286V26.7807H126.835ZM144.304 26.973C143.549 26.973 142.854 26.8494 142.216 26.6021C141.578 26.3548 141.021 26.0067 140.546 25.558C140.079 25.1001 139.715 24.5688 139.455 23.9644C139.194 23.3599 139.064 22.696 139.064 21.9725C139.064 21.2489 139.194 20.585 139.455 19.9804C139.715 19.376 140.079 18.8494 140.546 18.4006C141.021 17.9427 141.578 17.5901 142.216 17.3428C142.854 17.0956 143.549 16.9719 144.304 16.9719C145.067 16.9719 145.763 17.0956 146.392 17.3428C147.03 17.5901 147.582 17.9427 148.048 18.4006C148.515 18.8494 148.879 19.376 149.139 19.9804C149.409 20.585 149.544 21.2489 149.544 21.9725C149.544 22.696 149.409 23.3646 149.139 23.9781C148.879 24.5826 148.515 25.1092 148.048 25.558C147.582 26.0067 147.03 26.3548 146.392 26.6021C145.763 26.8494 145.067 26.973 144.304 26.973ZM144.304 24.72C144.663 24.72 144.996 24.6559 145.3 24.5276C145.615 24.3995 145.884 24.2163 146.109 23.9781C146.342 23.7309 146.522 23.4378 146.648 23.0989C146.782 22.76 146.85 22.3846 146.85 21.9725C146.85 21.5511 146.782 21.1757 146.648 20.846C146.522 20.5071 146.342 20.2186 146.109 19.9804C145.884 19.7332 145.615 19.5455 145.3 19.4172C144.996 19.289 144.663 19.2249 144.304 19.2249C143.945 19.2249 143.608 19.289 143.294 19.4172C142.988 19.5455 142.719 19.7332 142.485 19.9804C142.261 20.2186 142.081 20.5071 141.946 20.846C141.821 21.1757 141.758 21.5511 141.758 21.9725C141.758 22.3846 141.821 22.76 141.946 23.0989C142.081 23.4378 142.261 23.7309 142.485 23.9781C142.719 24.2163 142.988 24.3995 143.294 24.5276C143.608 24.6559 143.945 24.72 144.304 24.72ZM155.428 26.973C154.683 26.973 153.992 26.8539 153.353 26.6158C152.726 26.3685 152.178 26.0205 151.71 25.5718C151.253 25.123 150.894 24.5963 150.633 23.9919C150.373 23.3783 150.242 22.7051 150.242 21.9725C150.242 21.2397 150.373 20.5712 150.633 19.9667C150.894 19.3531 151.253 18.8219 151.71 18.3731C152.178 17.9244 152.726 17.5809 153.353 17.3428C153.992 17.0956 154.683 16.9719 155.428 16.9719C156.299 16.9719 157.076 17.1276 157.759 17.439C158.45 17.7504 159.024 18.1992 159.483 18.7853L157.786 20.3514C157.48 19.9851 157.144 19.7057 156.775 19.5134C156.416 19.321 156.012 19.2249 155.563 19.2249C155.177 19.2249 154.822 19.289 154.499 19.4172C154.175 19.5455 153.898 19.7332 153.663 19.9804C153.439 20.2186 153.26 20.5071 153.125 20.846C152.999 21.1848 152.937 21.5603 152.937 21.9725C152.937 22.3846 152.999 22.76 153.125 23.0989C153.26 23.4378 153.439 23.7309 153.663 23.9781C153.898 24.2163 154.175 24.3995 154.499 24.5276C154.822 24.6559 155.177 24.72 155.563 24.72C156.012 24.72 156.416 24.6238 156.775 24.4315C157.144 24.2391 157.48 23.9599 157.786 23.5935L159.483 25.1596C159.024 25.7366 158.45 26.1853 157.759 26.5059C157.076 26.8172 156.299 26.973 155.428 26.973ZM162.562 26.7807V18.7166L163.155 19.321H159.666V17.1642H168.072V19.321H164.596L165.189 18.7166V26.7807H162.562ZM173.975 20.2277C175.125 20.2277 176.013 20.4888 176.642 21.0108C177.28 21.5329 177.599 22.3159 177.599 23.3599C177.599 24.4864 177.243 25.3381 176.534 25.9152C175.825 26.4922 174.855 26.7807 173.625 26.7807H169.166V17.1642H171.793V20.2277H173.975ZM173.45 24.8299C173.898 24.8299 174.254 24.7062 174.514 24.459C174.784 24.2117 174.918 23.8637 174.918 23.4149C174.918 22.957 174.784 22.6364 174.514 22.4533C174.254 22.2609 173.898 22.1648 173.45 22.1648H171.793V24.8299H173.45Z" fill="white"/>
<path d="M30.0921 16.4595C30.0921 21.3187 30.0921 26.1481 30.0921 30.9773C30.0628 31.0005 30.0336 31.0237 30.0043 31.0467C29.9777 30.9862 29.961 30.9172 29.9227 30.8666C28.8661 29.4683 27.8021 28.0761 26.7559 26.669C26.64 26.5133 26.5707 26.2744 26.5697 26.0735C26.553 22.6814 26.5506 19.2891 26.5451 15.8968C26.5447 15.7283 26.5451 15.5597 26.5451 15.3364C26.3509 15.3364 26.1757 15.336 26.0005 15.3364C25.4521 15.3375 24.9036 15.3403 24.3552 15.3395C24.0319 15.3391 23.9716 15.2788 23.9708 14.9372C23.9684 13.9265 23.969 12.9158 23.9709 11.9052C23.9718 11.482 24.0715 11.3788 24.4805 11.3783C25.7666 11.3769 27.0528 11.3781 28.3388 11.3783C28.7549 11.3784 29.1711 11.3735 29.587 11.3803C29.9811 11.3866 30.0879 11.5042 30.0887 11.9263C30.0914 13.4274 30.0911 14.9285 30.0921 16.4595Z" fill="#F90000"/>
<path d="M13.2553 17.1937C13.2553 15.3677 13.2553 13.5717 13.2553 11.7756C13.2845 11.7469 13.3137 11.7182 13.3429 11.6895C13.3712 11.7593 13.3865 11.8399 13.4297 11.8974C14.4911 13.31 15.5598 14.7167 16.6128 16.1361C16.7187 16.2789 16.7817 16.4962 16.7822 16.6791C16.7925 20.0853 16.7903 23.4915 16.7905 26.8977C16.7906 27.0267 16.7906 27.1558 16.7906 27.3116C16.8847 27.3185 16.9661 27.3298 17.0476 27.3299C17.6966 27.3311 18.3455 27.3346 18.9944 27.3278C19.2604 27.325 19.3764 27.4478 19.3756 27.7238C19.3728 28.7927 19.378 29.8615 19.3745 30.9303C19.3735 31.2518 19.2704 31.3588 18.9571 31.359C17.2298 31.3602 15.5025 31.3584 13.7753 31.3527C13.3976 31.3515 13.2565 31.1915 13.2548 30.7687C13.2509 29.7498 13.2543 28.731 13.2544 27.7121C13.2548 24.216 13.2551 20.7198 13.2553 17.1937Z" fill="#F90000"/>
<path d="M27.2841 19.4944H16.6201V22.9288H28.2535L27.2841 19.4944Z" fill="#F90000"/>
</svg>
