<svg width="19" height="22" viewBox="0 0 19 22" fill="none" xmlns="http://www.w3.org/2000/svg">
<path d="M15.864 15.3639L9.5 21.7279L3.136 15.3639C1.87734 14.1052 1.02019 12.5016 0.672928 10.7558C0.32567 9.00995 0.503907 7.20035 1.1851 5.55582C1.86629 3.91129 3.01984 2.50569 4.49988 1.51677C5.97992 0.527838 7.71998 0 9.5 0C11.28 0 13.0201 0.527838 14.5001 1.51677C15.9802 2.50569 17.1337 3.91129 17.8149 5.55582C18.4961 7.20035 18.6743 9.00995 18.3271 10.7558C17.9798 12.5016 17.1227 14.1052 15.864 15.3639ZM9.5 10.9999C10.0304 10.9999 10.5391 10.7892 10.9142 10.4141C11.2893 10.0391 11.5 9.53035 11.5 8.99992C11.5 8.46949 11.2893 7.96078 10.9142 7.58571C10.5391 7.21064 10.0304 6.99992 9.5 6.99992C8.96957 6.99992 8.46086 7.21064 8.08579 7.58571C7.71072 7.96078 7.5 8.46949 7.5 8.99992C7.5 9.53035 7.71072 10.0391 8.08579 10.4141C8.46086 10.7892 8.96957 10.9999 9.5 10.9999Z" fill="white"/>
</svg>
