<svg width="73" height="73" viewBox="0 0 73 73" fill="none" xmlns="http://www.w3.org/2000/svg">
<rect width="73" height="73" rx="36.5" fill="white"/>
<g clip-path="url(#clip0_78_318)">
<path d="M36.5 24.6111C40.3742 24.6111 40.833 24.6281 42.3566 24.6961C43.7727 24.7584 44.5373 24.9963 45.0471 25.1945C45.7211 25.4551 46.2082 25.7723 46.7123 26.2764C47.2221 26.7861 47.5336 27.2676 47.7941 27.9416C47.9924 28.4514 48.2303 29.2217 48.2926 30.632C48.3605 32.1613 48.3775 32.6201 48.3775 36.4887C48.3775 40.3629 48.3605 40.8217 48.2926 42.3453C48.2303 43.7613 47.9924 44.526 47.7941 45.0357C47.5336 45.7098 47.2164 46.1969 46.7123 46.701C46.2025 47.2107 45.7211 47.5223 45.0471 47.7828C44.5373 47.9811 43.767 48.2189 42.3566 48.2812C40.8273 48.3492 40.3686 48.3662 36.5 48.3662C32.6258 48.3662 32.167 48.3492 30.6434 48.2812C29.2273 48.2189 28.4627 47.9811 27.9529 47.7828C27.2789 47.5223 26.7918 47.2051 26.2877 46.701C25.7779 46.1912 25.4664 45.7098 25.2059 45.0357C25.0076 44.526 24.7697 43.7557 24.7074 42.3453C24.6395 40.816 24.6225 40.3572 24.6225 36.4887C24.6225 32.6145 24.6395 32.1557 24.7074 30.632C24.7697 29.216 25.0076 28.4514 25.2059 27.9416C25.4664 27.2676 25.7836 26.7805 26.2877 26.2764C26.7975 25.7666 27.2789 25.4551 27.9529 25.1945C28.4627 24.9963 29.233 24.7584 30.6434 24.6961C32.167 24.6281 32.6258 24.6111 36.5 24.6111ZM36.5 22C32.5635 22 32.0707 22.017 30.5244 22.085C28.9838 22.1529 27.9246 22.4021 27.007 22.759C26.0498 23.1328 25.2398 23.6256 24.4355 24.4355C23.6256 25.2398 23.1328 26.0498 22.759 27.0014C22.4021 27.9246 22.1529 28.9781 22.085 30.5188C22.017 32.0707 22 32.5635 22 36.5C22 40.4365 22.017 40.9293 22.085 42.4756C22.1529 44.0162 22.4021 45.0754 22.759 45.993C23.1328 46.9502 23.6256 47.7602 24.4355 48.5645C25.2398 49.3688 26.0498 49.8672 27.0014 50.2354C27.9246 50.5922 28.9781 50.8414 30.5187 50.9094C32.065 50.9773 32.5578 50.9943 36.4943 50.9943C40.4309 50.9943 40.9236 50.9773 42.4699 50.9094C44.0105 50.8414 45.0697 50.5922 45.9873 50.2354C46.9389 49.8672 47.7488 49.3688 48.5531 48.5645C49.3574 47.7602 49.8559 46.9502 50.224 45.9986C50.5809 45.0754 50.8301 44.0219 50.898 42.4813C50.966 40.935 50.983 40.4422 50.983 36.5057C50.983 32.5691 50.966 32.0764 50.898 30.5301C50.8301 28.9895 50.5809 27.9303 50.224 27.0127C49.8672 26.0498 49.3744 25.2398 48.5645 24.4355C47.7602 23.6313 46.9502 23.1328 45.9986 22.7646C45.0754 22.4078 44.0219 22.1586 42.4812 22.0906C40.9293 22.017 40.4365 22 36.5 22Z" fill="#0F0F0F"/>
<path d="M36.5 29.0518C32.3879 29.0518 29.0518 32.3879 29.0518 36.5C29.0518 40.6121 32.3879 43.9482 36.5 43.9482C40.6121 43.9482 43.9482 40.6121 43.9482 36.5C43.9482 32.3879 40.6121 29.0518 36.5 29.0518ZM36.5 41.3314C33.8322 41.3314 31.6686 39.1678 31.6686 36.5C31.6686 33.8322 33.8322 31.6686 36.5 31.6686C39.1678 31.6686 41.3314 33.8322 41.3314 36.5C41.3314 39.1678 39.1678 41.3314 36.5 41.3314Z" fill="#0F0F0F"/>
<path d="M45.9816 28.7572C45.9816 29.7201 45.2 30.496 44.2428 30.496C43.2799 30.496 42.5039 29.7144 42.5039 28.7572C42.5039 27.7943 43.2855 27.0183 44.2428 27.0183C45.2 27.0183 45.9816 27.8 45.9816 28.7572Z" fill="#0F0F0F"/>
</g>
<defs>
<clipPath id="clip0_78_318">
<rect width="29" height="29" fill="white" transform="translate(22 22)"/>
</clipPath>
</defs>
</svg>
