<svg width="73" height="73" viewBox="0 0 73 73" fill="none" xmlns="http://www.w3.org/2000/svg">
<rect width="73" height="73" rx="36.5" fill="white"/>
<path d="M34.7434 35.5412H21.5818V30.6311H34.7434C35.5122 30.6311 36.0468 30.7574 36.3151 30.978C36.5833 31.1986 36.7495 31.6078 36.7495 32.2055V33.9686C36.7495 34.5984 36.5833 35.0076 36.3151 35.2282C36.0468 35.4488 35.5122 35.543 34.7434 35.543V35.5412ZM35.6464 26.0019H16V47H21.5818V40.1684H31.8684L36.7495 47H43L37.6184 40.1364C39.6025 39.8592 40.4934 39.286 41.2282 38.3413C41.9629 37.3966 42.3313 35.8862 42.3313 33.8705V32.296C42.3313 31.1006 42.1972 30.1559 41.9629 29.4318C41.7287 28.7077 41.3283 28.0779 40.7597 27.5123C40.1591 26.9767 39.4903 26.5996 38.6875 26.3469C37.8847 26.1263 36.8816 26 35.6464 26V26.0019Z" fill="#0F0F0F"/>
<path d="M49.5 35C51.9853 35 54 32.9853 54 30.5C54 28.0147 51.9853 26 49.5 26C47.0147 26 45 28.0147 45 30.5C45 32.9853 47.0147 35 49.5 35Z" fill="#ED143B"/>
</svg>
