<svg width="73" height="73" viewBox="0 0 73 73" fill="none" xmlns="http://www.w3.org/2000/svg">
<rect width="73" height="73" rx="36.5" fill="white"/>
<path fill-rule="evenodd" clip-rule="evenodd" d="M23.5623 34.9014C31.6154 31.6555 36.9854 29.5157 39.6722 28.4818C47.3438 25.5299 48.9379 25.0171 49.9769 25.0002C50.2054 24.9965 50.7163 25.0488 51.0473 25.2973C51.3268 25.5071 51.4037 25.7905 51.4405 25.9894C51.4773 26.1883 51.5231 26.6414 51.4867 26.9954C51.0709 31.0363 49.2721 40.8426 48.357 45.3686C47.9697 47.2836 47.2073 47.9258 46.4691 47.9886C44.8649 48.1252 43.6467 47.0078 42.093 46.0656C39.6617 44.5912 38.2882 43.6734 35.9282 42.2347C33.2008 40.572 34.9688 39.6581 36.5232 38.1646C36.9299 37.7738 43.9981 31.8262 44.1349 31.2867C44.152 31.2192 44.1679 30.9677 44.0063 30.8349C43.8448 30.7021 43.6064 30.7475 43.4344 30.7836C43.1905 30.8348 39.3065 33.2097 31.7823 37.9084C30.6798 38.6088 29.6812 38.95 28.7865 38.9321C27.8002 38.9124 25.9029 38.4162 24.4925 37.9921C22.7625 37.4718 21.3875 37.1968 21.5073 36.3133C21.5696 35.8531 22.2547 35.3824 23.5623 34.9014Z" fill="#0F0F0F"/>
</svg>
