<svg width="73" height="73" viewBox="0 0 73 73" fill="none" xmlns="http://www.w3.org/2000/svg">
<rect width="73" height="73" rx="36.5" fill="white"/>
<path d="M55.6115 28.5417C55.6115 28.5417 55.2307 25.7969 54.0576 24.5916C52.5723 23.0054 50.9117 22.9976 50.15 22.9043C44.6961 22.5 36.5076 22.5 36.5076 22.5H36.4924C36.4924 22.5 28.3039 22.5 22.85 22.9043C22.0883 22.9976 20.4277 23.0054 18.9424 24.5916C17.7693 25.7969 17.3961 28.5417 17.3961 28.5417C17.3961 28.5417 17 31.7685 17 34.9876V38.0046C17 41.2237 17.3885 44.4506 17.3885 44.4506C17.3885 44.4506 17.7693 47.1954 18.9348 48.4006C20.4201 49.9868 22.3701 49.9324 23.2385 50.1034C26.3615 50.4067 36.5 50.5 36.5 50.5C36.5 50.5 44.6961 50.4844 50.15 50.0879C50.9117 49.9946 52.5723 49.9868 54.0576 48.4006C55.2307 47.1954 55.6115 44.4506 55.6115 44.4506C55.6115 44.4506 56 41.2315 56 38.0046V34.9876C56 31.7685 55.6115 28.5417 55.6115 28.5417ZM32.4705 41.6669V30.4778L43.0051 36.0918L32.4705 41.6669Z" fill="#0F0F0F"/>
</svg>
