<svg width="180" height="180" viewBox="0 0 180 180" fill="none" xmlns="http://www.w3.org/2000/svg">
<path d="M41.7447 31.0765C41.7426 30.0894 41.648 25.0068 41.8776 24.4414L42.085 24.3657L130.72 24.3782C137.878 24.4445 140.901 29.1855 141.266 35.5702L141.269 57.0767C141.267 57.5998 141.445 59.0212 141.229 59.365L140.911 59.3847H134.321L134.301 35.9323C134.255 30.8543 130.575 31.0737 126.745 31.0735L41.7447 31.0765Z" fill="#C10404"/>
<path d="M32.0947 48.1695L31.4895 48.2131C29.1591 48.3601 26.5493 48.4912 26.4322 45.3377C26.286 41.4012 27.5468 41.242 30.9601 41.2828H114.413C115.142 42.3181 116.558 43.8797 117.418 44.8852C116.498 45.954 115.424 47.1858 114.413 48.1695C113.173 48.2226 111.665 48.1787 110.405 48.1695C110.323 49.0734 110.402 51.2935 110.402 52.3288L110.405 90.4663C110.407 101.997 111.237 97.5932 104.202 107.017L95.133 119.281C92.9832 122.225 90.8204 125.287 88.5792 128.154C87.1663 129.952 83.0765 135.251 82.2824 136.947C80.906 139.886 84.744 151.868 79.1418 152.306C74.6496 152.656 68.7497 152.461 64.186 152.374C59.8238 152.291 60.7836 147.652 60.7896 144.833L60.7875 139.628C60.7826 138.681 60.7263 137.474 60.7903 136.563C60.3044 135.968 59.7556 135.452 59.2483 134.787L38.1395 106.851C31.3042 98.0151 32.0883 99.8612 32.0931 88.6196L32.0947 48.1695ZM54.4098 48.1695H53.4352V94.3202H60.109C61.4045 94.2376 60.7938 90.0782 60.7938 88.6825L60.7903 48.1695H54.4098ZM67.7519 48.1695V94.3202H74.9762C75.0679 93.011 74.9797 90.7167 74.9779 89.3459L74.9762 48.1695H67.7519ZM81.9188 48.1695V94.3202C82.5931 94.3202 88.9258 94.451 89.1118 94.3202V48.1695H81.9188ZM96.0186 48.1695V94.4967H103.333C103.42 89.4605 103.331 84.1663 103.331 79.1045L103.333 48.1695H96.0186ZM39.2209 48.1695V94.3202H46.4015V48.1695H39.2209ZM43.0086 101.406C43.3929 102.347 46.3544 105.817 47.194 106.93L62.2697 127.089C63.2649 128.41 64.572 130.064 65.3237 131.507H77.2065C80.404 127.392 83.7751 122.864 86.8147 118.608L96.643 105.498C97.6298 104.185 98.6103 102.641 99.5775 101.406C98.007 101.458 96.2735 101.409 94.6869 101.408L47.8957 101.404C46.4574 101.401 44.3825 101.325 43.0086 101.406ZM67.7519 138.588C67.7154 140.853 67.747 143.192 67.7519 145.463C69.997 145.464 73.038 145.563 75.2124 145.463V138.588H67.7519Z" fill="#C10404"/>
<path d="M134.321 92.1054C134.124 85.1142 134.431 78.0981 134.321 71.103H141.283V92.1054C143.577 89.3713 146.617 86.9276 148.817 84.3763C150.007 85.6848 151.506 86.9694 152.673 88.3472C153.584 89.4233 154.28 88.4667 152.603 90.1904C148.231 94.6855 143.696 99.0248 139.318 103.509C138.834 103.999 138.133 104.667 137.775 105.228C136.703 104.183 135.698 103.073 134.639 102.016L124.629 92.0699C123.583 91.0394 122.626 89.8954 121.548 88.9023C122.539 87.8975 125.37 85.0485 126.368 84.3763C128.78 85.9242 132.246 89.9601 134.321 92.1054Z" fill="#C10404"/>
</svg>
