<svg width="181" height="180" viewBox="0 0 181 180" fill="none" xmlns="http://www.w3.org/2000/svg">
<path d="M30.4842 42.7988C27.4467 43.0759 24.4059 40.0008 26.1753 36.9028C26.6436 36.0829 28.107 34.7715 28.8241 34.0545L35.9068 26.9042C37.0684 25.717 38.0759 24.3313 39.7708 24.02C44.3914 24.06 45.8866 28.4162 42.8277 31.4461C40.5418 33.7005 33.1357 41.8503 30.4842 42.7988Z" fill="#C10404"/>
<path d="M114.701 147.403C60.5757 169.624 6.65364 113.271 32.0449 58.4917C34.5649 53.0551 34.5435 53.3181 40.1826 53.3265L53.8376 53.335C60.4104 53.3817 59.1272 52.0577 59.1219 46.3463L59.1107 28.9829C59.1118 26.6101 58.9908 24.8739 61.8589 24.5246L111.505 24.5233C113.756 24.5229 115.985 24.5067 118.258 24.5501C122.744 24.3605 121.869 28.1423 121.872 31.1993L121.849 50.3688C121.841 54.0694 125.268 53.3311 127.855 53.3286L138.552 53.3293C147.305 53.3234 146.399 52.7721 149.953 60.7364C165.161 94.8169 148.671 132.907 114.701 147.403ZM88.7601 63.2828C69.7409 65.3176 55.3075 81.5155 60.1207 100.949C61.007 104.529 65.8614 103.137 69.4463 103.16C73.0291 103.151 75.2091 103.755 76.4283 99.6537C74.5035 95.031 74.4132 89.714 76.9683 85.2994C76.5225 84.7836 74.8294 83.0986 74.1653 82.6549C70.6268 80.2903 72.3178 75.3094 76.4821 75.5822C78.3412 75.7038 80.3996 78.311 81.9064 79.6501C85.0564 77.6954 88.1462 76.8454 91.8405 77.1895C94.3278 77.0398 97.5396 78.2418 99.5435 79.6501C106.35 70.8832 110.804 78.8929 107.578 82.0256C106.48 83.1092 105.259 84.173 104.22 85.2994C108.988 92.8042 103.848 98.6567 105.324 101.358C106.948 104.329 111.692 102.836 114.502 103.166C117.173 103.48 120.464 102.984 120.814 99.8713C125.242 80.4675 108.294 61.9757 88.7601 63.2828ZM136.365 72.4565C131.456 73.0102 132.574 76.6654 133.225 79.9419C136.412 95.9647 129.062 113.474 115.876 122.946C114.177 124.166 111.825 124.902 112.168 127.492C112.434 129.5 113.945 130.614 115.822 130.969C116.866 130.959 117.514 130.769 118.395 130.192C136.151 118.56 145.746 95.4297 139.826 74.7912C139.409 73.3364 137.845 72.4902 136.365 72.4565ZM44.3697 72.8045C41.0594 73.2752 40.8671 75.4665 40.3295 78.1781C36.4332 97.8322 45.153 117.276 61.1069 129.024C62.0515 129.719 63.9619 131.186 65.0648 131.381C67.4898 130.996 70.4932 126.546 66.7874 124.11C52.5934 114.779 44.903 97.364 47.8667 80.6036C48.4457 77.3298 49.5102 72.7613 44.3697 72.8045ZM90.0471 87.6615C87.8211 87.9456 86.2457 89.9787 86.5262 92.2051C86.8068 94.4312 88.8371 96.0101 91.0639 95.7331C93.2959 95.4557 94.879 93.4194 94.5981 91.1881C94.3169 88.9563 92.2782 87.3768 90.0471 87.6615Z" fill="#C10404"/>
<path d="M151.494 42.7988C149.388 42.8839 148.643 41.9962 147.263 40.6261L139.961 33.2996C138.861 32.1816 137.222 30.873 137.01 29.2641C136.668 26.667 138.249 24.8726 140.784 24.5244C142.899 24.6213 143.273 25.0324 144.658 26.4881C147.748 29.7349 151.044 32.7886 154.105 36.0678C156.299 38.8001 155.02 42.1044 151.494 42.7988Z" fill="#C10404"/>
</svg>
