<svg width="181" height="180" viewBox="0 0 181 180" fill="none" xmlns="http://www.w3.org/2000/svg">
<path d="M86.27 45.0032C84.8768 44.9167 82.4165 45 80.9273 45.0007L70.0791 45.006C64.0959 45.0088 60.839 46.0656 61.0468 38.2599C61.2774 29.6155 59.0404 27.2881 69.6035 27.2865L77.7351 27.2898H82.6841C84.5533 29.5965 88.2099 32.6391 90.4645 35.0438C93.0864 32.4031 95.7467 29.8981 98.3929 27.2898C102.289 27.241 106.22 27.3174 110.129 27.2855C113.532 27.399 119.792 26.0488 119.607 31.3743C119.489 34.7692 119.777 38.3284 119.463 41.6985C119.145 45.1199 115.817 44.9919 113.395 45.0106C107.182 45.0875 100.9 44.8805 94.6948 45.0032V53.242H111.88V59.2615C109.716 61.3877 107.458 63.5481 105.221 65.5907C104.488 64.6664 103.517 63.6058 102.732 62.6829C100.016 62.5961 96.8401 62.6797 94.0712 62.6804L76.8668 62.6829C76.9564 63.5808 76.8717 66.1637 76.8668 67.1344C75.6001 68.1233 73.6848 68.997 72.2676 69.9652C52.5087 83.456 49.9241 112.963 69.7374 128.079C71.9347 129.756 74.4754 131.178 76.8668 132.563V140.107H104.278V132.293C119.469 125.146 126.789 109.553 124.593 93.3448L129.771 88.4303C130.764 87.4797 131.808 86.3997 132.842 85.5239C138.026 86.7558 143.203 85.9047 148.251 84.6028V106.655C148.257 111.042 148.86 114.888 145.877 118.377C142.203 122.914 136.664 121.462 131.602 121.725C129.581 121.83 127.824 123.913 126.411 125.31L121.603 130.137C119.012 132.744 115.718 135.734 113.407 138.488C113.406 141.497 114.778 149.137 109.752 148.883L74.8548 148.887C72.7039 148.889 67.3992 149.538 67.5201 146.017C67.6045 143.555 67.6266 140.963 67.628 138.488C65.9202 137.084 64.3212 135.306 62.7635 133.733C58.9645 129.897 54.771 125.57 50.797 121.938H41.9879V113.645H33.4227C33.4766 116.132 33.6826 121.49 33.3114 123.775C32.4458 129.102 24.3038 128.527 24.2694 123.134C24.2231 120.102 24.2426 117.084 24.2442 114.058L24.2435 84.5332C24.2435 82.2372 24.2122 80.048 24.3426 77.7238C24.4793 73.7645 29.1731 71.8541 32.0417 74.6272C34.1655 76.6804 33.3658 83.4434 33.4227 86.5336H41.9879C41.9404 85.7046 41.9837 84.4095 41.9844 83.5513L41.9879 77.4246H51.4133C51.819 76.8811 52.7517 75.9516 53.2505 75.4348L67.628 60.8059V53.242H86.27V45.0032ZM36.8326 95.2833C34.4215 95.7031 32.8062 97.9967 33.2233 100.408C33.6405 102.82 35.9326 104.437 38.3443 104.022C40.7599 103.607 42.3802 101.311 41.9626 98.8963C41.5449 96.4811 39.2471 94.8632 36.8326 95.2833Z" fill="#C10404"/>
<path d="M120.757 62.1322C120.853 60.6813 120.676 59.1436 120.771 57.6575C121.45 47.028 130.364 40.0854 140.521 39.7771C141.564 39.7166 141.181 41.3102 141.183 42.1772C142.138 42.984 143.157 44.1097 144.139 45.003C143.567 45.7712 142.112 47.1543 141.363 47.9129L134.479 54.7529C136.778 57.3538 140.018 60.4644 142.517 63.0459C145.99 60.489 149.459 56.1884 152.851 53.2419C154.003 54.5343 155.307 55.7728 156.597 56.928C157.836 68.2283 148.706 78.2668 137.248 77.4973C131.436 77.107 131.636 75.6663 126.978 80.1115L122.857 84.0279C118.02 88.5989 112.744 93.352 108.102 98.0598C108.201 104.896 107.193 107.576 102.732 112.786C93.4834 120.797 79.0071 118.464 74.3057 106.907C68.4725 92.5673 82.425 77.8734 97.1112 84.1734C99.3429 82.2595 101.361 80.2911 103.516 78.2992L120.757 62.1322ZM90.0655 95.1756C87.5251 95.4477 85.6886 97.7314 85.9681 100.271C86.2472 102.811 88.5359 104.641 91.0745 104.355C93.6036 104.07 95.4254 101.792 95.1474 99.2618C94.8693 96.732 92.5961 94.9042 90.0655 95.1756Z" fill="#C10404"/>
</svg>
