<svg width="181" height="180" viewBox="0 0 181 180" fill="none" xmlns="http://www.w3.org/2000/svg">
<path d="M114.09 35.933C115.582 30.452 119.433 26.9571 125.121 26.224C131.431 25.6898 137.292 29.4141 138.955 35.6342C142.048 47.2048 129.624 55.8266 119.711 49.9903C117.478 48.6902 115.038 45.9153 114.386 43.3756C111.168 43.3781 107.764 43.3116 104.563 43.3756C103.633 44.2341 102.619 45.711 101.816 46.7619L95.9448 54.6059C95.0535 55.7791 93.8705 57.5471 92.606 58.298C88.8738 60.5139 86.505 56.3651 84.7584 54.0754C83.7399 52.7402 77.242 43.5574 76.5297 43.3756C69.631 43.1731 62.3881 43.6284 55.4704 43.2701C53.6275 43.1749 52.0683 40.7424 52.557 38.8904C53.4887 35.3621 56.633 35.9274 59.4213 35.9295L74.0132 35.9316C79.7655 35.932 79.506 34.8127 82.7366 39.2247L86.1808 43.929C87.6939 46.0359 89.2144 47.8985 90.5391 50.1355C92.2551 47.2896 94.4517 44.6019 96.3758 41.8667C100.556 36.2927 98.9105 35.9288 106.567 35.9288L114.09 35.933ZM125.989 33.4571C122.867 33.7068 120.543 36.4456 120.803 39.5668C121.064 42.688 123.81 45.0034 126.93 44.7319C130.035 44.4623 132.337 41.7317 132.078 38.6257C131.819 35.5196 129.096 33.2085 125.989 33.4571Z" fill="#FF0000" fill-opacity="0.74"/>
<path d="M99.7725 135.531L47.1834 135.533C45.3651 135.534 43.0015 135.676 41.2434 135.441C37.2612 134.908 34.0715 131.387 34.2073 127.311C34.4026 121.447 33.5691 112.023 34.9886 106.853C37.2475 98.621 44.8318 94.9658 45.2621 93.8363C47.3658 88.3153 49.4699 82.7673 51.509 77.2183C55.5418 66.2425 58.5779 66.9115 68.9778 66.9097L81.3454 66.9132L114.363 66.9083C121.43 66.9038 126.075 67.9405 128.784 75.3008C130.482 79.9165 131.981 84.5807 133.682 89.1904C135.679 94.602 134.977 92.7809 138.886 96.8593C143.928 102.12 146.827 104.834 146.862 112.587L146.863 122.081C146.877 131.91 146.323 135.563 135.586 135.537L99.7725 135.531ZM62.6268 74.2743C59.5267 74.9813 59.1319 77.8356 58.1813 80.4565L56.047 86.2552C55.4936 87.8017 54.7866 89.9146 54.132 91.3852H118.142H126.666C125.18 86.927 123.545 82.5261 121.877 78.133C120.585 74.7306 120.031 74.3593 116.524 74.2715L72.5588 74.275C69.4109 74.2746 65.7314 74.1762 62.6268 74.2743ZM111.535 105.92H66.9584C68.2838 107.15 70.2965 109.404 71.6704 110.807C72.5243 111.685 73.3716 112.536 74.2442 113.395C75.5028 113.45 76.876 113.401 78.1511 113.398L106.449 113.395C108.765 110.906 111.331 108.284 113.788 105.92C112.875 105.871 112.43 105.855 111.535 105.92ZM127.635 109.607C123.955 109.882 121.19 113.081 121.45 116.763C121.71 120.444 124.897 123.222 128.58 122.977C132.283 122.73 135.081 119.52 134.819 115.818C134.558 112.116 131.337 109.331 127.635 109.607ZM52.191 109.651C48.4887 109.922 45.7089 113.145 45.9849 116.847C46.2609 120.549 49.4879 123.325 53.1895 123.044C56.884 122.764 59.6536 119.544 59.378 115.849C59.1027 112.154 55.8863 109.38 52.191 109.651ZM82.1441 120.709H76.098C76.0966 123.102 76.0533 125.623 76.098 128.006H98.4542H104.563V120.709C102.382 120.614 99.4066 120.708 97.1622 120.709H82.1441Z" fill="#FF0000" fill-opacity="0.74"/>
<path d="M37.5039 93.5212C31.2262 93.5363 27.5256 95.1433 27.2365 87.4508C27.1107 84.1042 27.3777 80.4459 31.5461 80.6684C38.2298 80.6719 41.53 78.8259 41.6087 87.3977C41.639 90.7136 41.4196 93.2635 37.5039 93.5212Z" fill="#FF0000" fill-opacity="0.74"/>
<path d="M149.947 93.5214C148.958 93.6536 147.616 93.4694 146.614 93.5193C142.73 93.6993 139.532 93.8297 139.554 88.8161C139.57 85.3549 138.703 81.2888 143.459 80.6686C146.669 80.5406 153.904 79.6192 153.834 84.5478C153.784 88.024 154.906 93.0767 149.947 93.5214Z" fill="#FF0000" fill-opacity="0.74"/>
<path d="M59.8945 148.702C57.2571 150.875 55.2054 150.243 52.0294 150.301C44.7151 150.436 40.5368 151.041 40.6609 142.67H61.5841C61.5961 145.4 61.7128 146.559 59.8945 148.702Z" fill="#FF0000" fill-opacity="0.74"/>
<path d="M138.548 148.701C135.637 151.375 130.458 149.942 126.824 150.302C121.795 150.801 119.345 148.027 119.407 143.344H140.168L140.195 144.283C140.233 146.231 139.927 147.273 138.548 148.701Z" fill="#FF0000" fill-opacity="0.74"/>
</svg>
