<svg width="180" height="180" viewBox="0 0 180 180" fill="none" xmlns="http://www.w3.org/2000/svg">
<path d="M123.105 34.2556C124.065 32.9888 129.626 27.1301 130.733 26.9231C133.096 26.7653 134.809 29.4876 136.243 31.0384C137.352 32.2385 138.606 33.4196 139.663 34.655C139.729 36.5915 139.667 38.9364 139.667 40.901L139.663 53.0794H131.99C129.199 53.0784 125.848 53.1814 123.105 53.0794C123.049 47.4959 122.62 39.6293 123.105 34.2556Z" fill="#C10404"/>
<path d="M31.8137 37.2536C35.1204 31.7287 39.7219 28.0404 46.2405 27.3327C52.7016 26.6593 58.6665 29.6794 62.642 34.6927C64.7623 37.3664 68.4526 36.8581 71.41 36.8539L115.817 36.85C115.754 38.5139 115.813 40.5748 115.814 42.2785L115.817 53.0795H70.5757C65.1261 53.0532 64.7401 52.5191 60.7924 56.8233C53.739 64.5141 41.4171 63.9354 34.8529 55.9402C33.7148 54.554 32.7808 52.9821 31.8137 51.4504C36.5177 51.52 41.2431 51.3927 45.9502 51.463C55.6069 51.6065 55.9159 39.4589 48.6424 37.513C46.9001 37.0627 43.7596 37.2497 41.8787 37.2508L31.8137 37.2536Z" fill="#C10404"/>
<path d="M123.105 78.4481C121.788 75.9686 114.928 69.715 112.629 67.0839C110.759 64.9425 112.661 61.461 115.817 61.2216C117.011 61.146 118.485 61.2188 119.701 61.218L144.483 61.2205C146.322 61.2216 149.371 60.8893 150.666 62.2661C153.664 65.4533 150.466 67.8661 148.497 69.9663L144.327 74.5054C143.151 75.7896 141.836 77.2472 140.595 78.4481H123.105Z" fill="#C10404"/>
<path d="M36.2384 102.648C37.7033 99.8143 43.2601 93.8106 45.514 91.2228C47.622 88.8026 48.9941 85.9529 52.4338 85.532C56.3238 85.3897 60.5197 85.5359 64.4358 85.5352L102.321 85.5317C104.529 85.5282 106.88 85.4656 109.074 85.6157C111.348 85.7711 113.331 88.7682 114.846 90.2113C116.406 91.6967 127.377 103.321 128.437 103.743C132.006 105.165 137.249 106.527 141.005 107.65C144.721 108.76 148.763 109.326 151.659 112.015C155.965 116.011 155.38 128.997 155.664 135.101C155.959 141.449 147.683 139.872 143.425 139.864C143.574 122.556 120.653 119.312 113.668 133.126C112.643 135.147 112.319 136.896 112.075 139.095H68.1356C67.1333 125.486 48.465 118.607 39.3831 130.861C37.3528 133.601 36.7625 135.667 36.2384 139.095C35.8713 139.15 33.7077 139.175 33.1993 139.101C29.073 138.503 24.8658 141.205 24.8109 135.045C24.7802 131.606 24.8482 128.177 24.8108 124.745H33.5577V117.151C31.0404 117.029 27.4127 117.147 24.8108 117.151L24.7923 107.53C24.7782 101.042 31.4044 102.644 36.2384 102.648ZM76.1435 92.8874H53.9336C51.8664 95.707 47.7566 100.586 45.2823 103.06C45.5984 103.309 45.9207 103.57 46.2407 103.812C47.3913 104.604 53.8576 104.178 55.7023 104.178L76.1435 104.179C76.1432 103.248 76.1688 92.9156 76.1435 92.8874ZM83.3112 92.8874V104.179L113.91 104.183C115.06 104.185 116.621 104.245 117.73 104.179C117.673 103.616 108.223 94.0437 107.116 92.8874H83.3112Z" fill="#C10404"/>
<path d="M129.239 149.198C124.358 149.88 119.848 146.481 119.159 141.601C118.47 136.722 121.863 132.206 126.741 131.511C131.63 130.813 136.156 134.215 136.846 139.104C137.537 143.993 134.129 148.515 129.239 149.198Z" fill="#C10404"/>
<path d="M53.1319 149.227C48.2888 149.782 43.9084 146.317 43.3332 141.476C42.758 136.636 46.2044 132.241 51.0426 131.645C55.91 131.045 60.3372 134.517 60.9162 139.387C61.4949 144.257 58.0043 148.669 53.1319 149.227Z" fill="#C10404"/>
</svg>
