<svg width="180" height="180" viewBox="0 0 180 180" fill="none" xmlns="http://www.w3.org/2000/svg">
<path d="M40.3742 56.1686C47.9979 56.5328 54.197 50.4842 55.3867 43.229C56.4639 36.6593 52.8181 31.8018 49.7107 26.4777C46.7874 21.4694 43.6638 16.7597 40.3742 12.0215C40.2442 12.1777 39.9436 12.7269 39.8019 12.9475C34.9985 20.4161 29.8945 27.8836 26.3262 36.0508C22.415 45.003 30.7998 56.7561 40.3742 56.1686Z" fill="#C10404"/>
<path d="M33.5399 84.1101C35.0048 81.2762 40.5616 75.2726 42.8155 72.6847C44.9235 70.2645 46.2956 67.4148 49.7353 66.994C53.6253 66.8516 57.8212 66.9978 61.7373 66.9971L99.6227 66.9936C101.83 66.9901 104.182 66.9275 106.376 67.0776C108.649 67.233 110.632 70.2301 112.147 71.6733C113.708 73.1586 124.679 84.783 125.739 85.2053C129.308 86.627 134.55 87.9886 138.307 89.1118C142.023 90.2224 146.064 90.7877 148.961 93.4768C153.266 97.4734 152.682 110.459 152.965 116.563C153.26 122.911 144.985 121.334 140.727 121.326C140.876 104.018 117.955 100.774 110.969 114.587C109.944 116.609 109.62 118.358 109.376 120.557H65.4371C64.4348 106.948 45.7665 100.069 36.6846 112.323C34.6543 115.063 34.0641 117.129 33.5399 120.557C33.1728 120.612 31.0092 120.636 30.5008 120.563C26.3745 119.965 22.1674 122.667 22.1124 116.507C22.0817 113.068 22.1497 109.639 22.1123 106.207H30.8592V98.6124C28.342 98.4904 24.7142 98.6093 22.1123 98.6124L22.0938 88.9923C22.0797 82.5035 28.706 84.1059 33.5399 84.1101ZM73.445 74.3494H51.2351C49.1679 77.1689 45.0581 82.0479 42.5838 84.5222C42.8999 84.7711 43.2223 85.0316 43.5422 85.2735C44.6928 86.0655 51.1591 85.6394 53.0038 85.6394L73.445 85.6405C73.4447 84.7099 73.4703 74.3775 73.445 74.3494ZM80.6127 74.3494V85.6405L111.211 85.645C112.362 85.6472 113.923 85.7073 115.031 85.6405C114.974 85.0776 105.525 75.5056 104.418 74.3494H80.6127Z" fill="#C10404"/>
<path d="M126.54 130.66C121.66 131.342 117.149 127.943 116.46 123.063C115.772 118.184 119.165 113.668 124.043 112.972C128.932 112.275 133.458 115.677 134.148 120.566C134.838 125.455 131.431 129.977 126.54 130.66Z" fill="#C10404"/>
<path d="M50.4337 130.689C45.5906 131.244 41.2101 127.779 40.635 122.938C40.0598 118.098 43.5062 113.702 48.3444 113.107C53.2118 112.507 57.639 115.979 58.218 120.849C58.7967 125.719 55.306 130.131 50.4337 130.689Z" fill="#C10404"/>
</svg>
