<svg width="180" height="180" viewBox="0 0 180 180" fill="none" xmlns="http://www.w3.org/2000/svg">
<path d="M35.3439 53.9837C38.6131 52.7293 41.409 51.2425 43.2206 48.1196C46.8667 41.8344 45.2963 34.2464 39.0954 30.4204C38.7473 31.249 39.4684 40.6359 38.8156 43.1647C37.7788 47.1806 32.8861 49.3237 29.2281 47.3827C24.92 45.0965 25.4794 40.9801 25.478 36.8738L25.4826 30.4204C15.5056 36.3704 17.8937 50.2501 29.2657 53.9837V96.1965V118.054H35.3439V53.9837Z" fill="#C10404"/>
<path d="M101.131 144.888C132.374 146.679 159.15 122.798 160.928 91.5546C162.707 60.3116 138.815 33.545 107.571 31.7785C76.3445 30.0128 49.5962 53.8889 47.8184 85.115C46.0405 116.341 69.9064 143.099 101.131 144.888ZM106.593 46.9409C129.421 48.1658 146.921 67.6873 145.652 90.5132C144.384 113.339 124.829 130.802 102.005 129.489C79.2435 128.18 61.839 108.69 63.104 85.9257C64.3692 63.1617 83.8261 45.7196 106.593 46.9409Z" fill="#C10404"/>
<path d="M126.527 61.2736C121.21 56.9623 115.237 54.4662 108.473 53.6503L108.234 53.6035L108.134 53.6995C108.191 58.5584 108.147 63.5007 108.147 68.366C110.384 68.8367 114.354 70.109 115.917 71.7937C117.656 70.1305 119.315 68.4732 121.017 66.7738C122.853 65.036 124.736 63.0778 126.527 61.2736Z" fill="#C10404"/>
<path d="M101.193 68.3661C101.29 63.5961 101.195 58.451 101.193 53.6504C95.4291 53.771 87.1083 57.5113 82.7799 61.2737C84.2009 62.8434 86.3563 64.8821 87.8828 66.4191C89.5436 68.0743 91.7384 70.087 93.248 71.7938C94.9334 70.0923 98.7974 68.4979 101.193 68.3661Z" fill="#C10404"/>
<path d="M88.4062 76.3304C85.7752 73.6104 80.7112 67.9407 77.7637 65.8032C77.4122 66.4568 77.1566 66.8238 76.6911 67.4035C72.6056 72.4882 70.8861 78.5843 69.9689 84.9184H80.5889H85.2341C85.7653 81.7142 86.6393 79.0884 88.4062 76.3304Z" fill="#C10404"/>
<path d="M138.956 84.5345C137.828 76.7358 136.197 72.182 131.026 65.8032C130.59 66.3759 129.676 67.2657 129.15 67.8047L122.686 74.3469C122.095 74.9389 121.231 75.8533 120.581 76.3304C122.355 79.1872 123.63 80.9914 124.119 84.5345H128.452H138.956Z" fill="#C10404"/>
<path d="M103.322 100.813C110.478 101.553 116.878 96.3475 117.613 89.1904C118.348 82.0329 113.138 75.6366 105.98 74.9075C98.8295 74.1787 92.4409 79.3821 91.7072 86.5319C90.9738 93.6819 96.172 100.074 103.322 100.813Z" fill="#C10404"/>
<path d="M131.026 110.106C135.18 106.152 138.723 97.0947 138.956 91.3403C134.191 91.3389 128.812 91.4732 124.119 91.3403C123.69 94.201 122.386 97.1787 120.581 99.4382C122.429 101.071 124.099 103.048 125.974 104.767C126.912 105.695 130.564 109.133 131.026 110.106Z" fill="#C10404"/>
<path d="M85.2341 91.3403C82.9377 91.334 80.546 91.3969 78.2651 91.3403H69.9689C70.7761 98.3969 73.4423 104.899 77.7637 110.525C78.0475 110.15 78.5017 109.711 78.8371 109.365C81.0473 107.1 86.8717 102.057 88.4062 99.7061C87.3945 96.6197 85.9453 95.4251 85.2341 91.3403Z" fill="#C10404"/>
<path d="M126.527 114.959C123.173 111.333 119.317 107.813 115.917 104.234C113.544 105.808 110.938 106.904 108.147 107.464V122.828C111.077 122.024 113.404 121.859 116.477 120.721C120.186 119.365 123.413 117.353 126.527 114.959Z" fill="#C10404"/>
<path d="M101.193 107.464C98.082 106.879 95.9516 105.712 93.248 104.234L93.1907 104.243C90.0436 107.838 85.855 111.552 82.4052 114.959C86.3163 117.984 88.2144 118.448 92.1255 120.65L92.2496 120.721C95.2607 121.511 98.1116 122.346 101.193 122.828V107.464Z" fill="#C10404"/>
<path d="M24.3085 144.248C25.9366 145.14 36.4111 144.777 38.4881 144.687C42.0614 144.531 41.5685 141.089 41.5699 138.632L41.5674 127.476C41.566 126.082 42.1092 124.615 40.8436 124.585C38.9659 124.528 36.7792 124.581 34.8811 124.581L22.9789 124.585L22.9765 135.867C22.9768 138.405 22.2698 142.607 24.3085 144.248Z" fill="#C10404"/>
</svg>
