<svg width="181" height="180" viewBox="0 0 181 180" fill="none" xmlns="http://www.w3.org/2000/svg">
<path d="M59.2692 124.492C57.7121 125.933 56.2345 127.483 54.6968 128.947C53.2846 130.288 51.1685 133.581 49.0029 131.348C47.6627 129.966 36.5861 119.095 36.4465 118.43C36.1691 117.106 37.6805 115.882 38.4616 115.073L41.9379 111.516C44.6516 108.759 44.0648 108.792 42.2227 105.393C40.8962 102.946 39.8145 100.329 38.9932 97.6709C38.4096 95.7823 38.3407 93.944 36.0903 93.3512C33.7483 92.7346 26.1137 94.2298 25.3235 92.1204C25.0577 91.411 25.1117 76.5191 25.2108 74.8109C25.4858 70.0676 32.8305 73.457 36.1427 72.3485C38.3868 71.5976 38.4581 69.1838 39.0203 67.259C39.7361 64.8079 43.7671 57.7752 43.3909 56.4829C42.6551 53.9548 36.7393 50.3731 36.1315 48.2426C35.7156 46.7861 37.0659 45.9107 37.9568 45.004C41.5983 41.2985 45.6244 36.9993 49.4195 33.5971C52.1378 31.1601 56.1783 38.5982 58.8973 40.1549C60.1284 40.8601 61.8476 39.3583 62.885 38.8007C65.2753 37.5164 67.815 36.3942 70.3578 35.4475C72.1645 34.7748 74.3316 34.7269 74.9563 32.5468C75.7153 29.8982 73.8232 22.5075 76.313 21.9707C78.7686 21.7547 81.3442 21.9714 83.8139 21.9709L90.4669 21.964C94.2979 21.9602 96.1087 20.9732 96.0792 25.4029L96.0367 30.0494C95.9913 35.1026 96.9117 34.2097 100.998 35.5466C103.341 36.3137 105.74 37.3568 107.922 38.5019C108.947 39.0394 110.057 40.1205 111.2 40.3061C113.772 40.7237 117.56 33.6474 120.291 33.1591C121.814 32.8866 122.928 34.4992 123.869 35.4401L132.034 43.5858C135.177 46.7108 136.924 47.17 133.295 50.7014L130.184 53.7438C126.894 56.9758 127.923 56.7961 129.588 60.528C130.569 62.6479 133.42 71.5719 134.552 72.3689C138.033 72.4132 141.633 72.2613 145.112 72.4466C147.323 72.5644 146.568 78.497 146.568 80.1209L146.565 92.3697C144.763 94.8809 136.329 92.3419 134.19 93.7302C133.414 94.234 131.997 100.103 131.454 101.419C131.018 102.48 130.25 103.598 130.017 104.706C125.72 100.638 120.502 95.34 116.656 90.9789C124.577 57.739 85.5112 36.5911 63.154 59.9911C50.0569 73.6989 51.2887 93.0594 64.658 105.763C71.8566 111.9 81.2693 115.034 90.6694 113.551C91.4242 113.432 92.578 113.284 93.2266 112.881C97.4967 116.76 103.482 122.521 107.261 126.915C105.107 128.114 102.577 128.972 100.239 129.743C98.8755 130.192 96.5334 130.156 96.4258 131.961C96.2237 135.355 96.4114 138.779 96.3401 142.179C95.952 142.926 95.4661 143.469 94.5643 143.475C88.9334 143.516 83.2714 143.529 77.6426 143.46C76.5218 143.446 75.3855 143.244 75.2474 141.978C75.0357 140.044 75.4302 132.592 75.0009 131.57C74.6174 130.836 67.1316 128.306 65.6195 127.634C63.4736 126.68 61.4197 125.323 59.2692 124.492Z" fill="#C10404"/>
<path d="M96.0567 77.7415C95.1546 76.2839 93.9923 75.1273 92.925 73.8022C90.2601 70.4937 87.4202 67.2016 84.9986 63.7236C86.0706 63.7911 87.5197 63.7342 88.6148 63.7314C97.6194 63.7054 104.899 70.3182 106.875 78.922C107.563 81.9177 107.523 87.3574 105.787 90.1084C107.926 92.0258 110.496 94.7093 112.57 96.76L132.056 116.247C132.815 116.995 134.163 118.406 134.987 118.937C137.95 119.052 139.791 118.45 142.921 119.301C158.386 123.511 160.871 144.175 147.185 152.27C138.755 157.256 127.697 153.749 123.001 145.413C120.416 140.473 120.277 136.703 121.615 131.346C115.538 125.366 109.673 119.23 103.659 113.233L97.1873 106.77C96.0897 105.678 94.1372 103.841 93.2266 102.68C76.3826 106.483 62.0796 91.1793 69.4343 74.6752C72.9355 79.3724 77.9628 83.8253 81.0822 88.686C85.275 84.8694 91.4554 81.2279 96.0567 77.7415ZM133.709 129.854C132.779 129.921 132.181 130.035 132.118 131.117C132.002 133.071 131.767 142.02 132.396 143.25C133.159 143.674 135.93 143.501 136.903 143.498L143.696 143.496C144.48 143.543 145.101 143.172 145.022 142.393C143.569 128.137 150.018 129.837 133.709 129.854Z" fill="#C10404"/>
</svg>
